<svg xmlns="http://www.w3.org/2000/svg" xmlns:xlink="http://www.w3.org/1999/xlink" width="100" height="100" viewBox="0, 0, 400,400"><defs><linearGradient id="Gradient1" x1="0" x2="1" y1="1" y2="0"><stop offset="0%" stop-color="#28e9ff"/><stop offset="100%" stop-color="#4f0ff0"/></linearGradient></defs><g id="svgg"><path id="path0" d="M174.219 14.090 C 161.543 21.370,150.557 28.073,149.805 28.984 C 148.568 30.483,148.438 32.939,148.438 54.684 L 148.438 78.726 128.902 90.925 C 118.158 97.635,109.193 103.125,108.980 103.125 C 108.768 103.125,108.594 100.374,108.594 97.011 C 108.594 91.668,108.372 90.695,106.836 89.291 C 103.253 86.018,59.374 61.458,57.109 61.458 C 54.512 61.458,10.023 86.542,7.227 89.582 C 4.737 92.289,4.435 140.011,6.891 142.626 C 7.673 143.459,18.037 149.414,29.923 155.859 L 51.533 167.578 51.543 198.438 L 51.553 229.297 29.276 242.074 C 17.024 249.101,6.655 255.494,6.234 256.280 C 4.711 259.127,5.259 306.618,6.836 308.422 C 9.020 310.920,54.612 335.417,57.077 335.417 C 58.380 335.417,67.027 331.174,78.812 324.753 L 98.384 314.090 123.411 330.596 L 148.438 347.103 148.438 359.402 C 148.438 370.007,148.626 371.915,149.805 373.246 C 152.212 375.966,197.364 400.000,200.066 400.000 C 202.788 400.000,247.818 375.985,250.195 373.266 C 251.370 371.922,251.566 369.983,251.584 359.484 L 251.606 347.266 276.603 330.650 L 301.601 314.035 321.222 324.726 C 332.812 331.041,341.714 335.417,342.971 335.417 C 345.431 335.417,391.046 310.906,393.164 308.446 C 394.743 306.612,395.289 259.126,393.764 256.276 C 393.342 255.488,382.977 249.095,370.730 242.070 L 348.464 229.297 348.466 198.438 L 348.467 167.578 370.077 155.859 C 381.963 149.414,392.327 143.459,393.109 142.626 C 395.091 140.516,395.311 92.867,393.353 90.071 C 391.652 87.644,345.539 61.458,342.964 61.458 C 340.818 61.458,296.524 86.211,293.164 89.288 C 291.628 90.694,291.406 91.669,291.406 97.011 C 291.406 100.374,291.232 103.125,291.020 103.125 C 290.807 103.125,281.842 97.635,271.098 90.925 L 251.563 78.726 251.563 54.641 C 251.563 30.748,251.548 30.541,249.805 28.654 C 246.539 25.120,202.928 0.777,199.936 0.818 C 197.947 0.845,191.385 4.231,174.219 14.090 M216.856 22.798 L 233.518 32.315 217.345 41.139 C 208.450 45.992,200.645 49.963,200.000 49.963 C 199.355 49.963,191.551 45.992,182.656 41.140 L 166.485 32.317 183.047 22.822 C 192.156 17.600,199.741 13.317,199.901 13.304 C 200.062 13.292,207.691 17.564,216.856 22.798 M177.867 52.071 L 194.531 61.173 194.531 77.136 C 194.531 85.916,194.225 92.982,193.852 92.839 C 193.478 92.695,185.751 88.535,176.681 83.594 L 160.191 74.609 160.174 58.789 C 160.164 50.088,160.392 42.969,160.680 42.969 C 160.968 42.969,168.702 47.065,177.867 52.071 M239.840 58.789 L 239.835 74.609 223.354 83.594 C 214.290 88.535,206.557 92.695,206.171 92.839 C 205.770 92.987,205.469 86.257,205.469 77.151 L 205.469 61.202 222.070 52.109 C 231.201 47.108,238.936 43.005,239.258 42.992 C 239.580 42.979,239.842 50.088,239.840 58.789 M74.387 83.832 C 82.859 88.642,89.802 92.809,89.817 93.092 C 89.851 93.737,58.331 110.938,57.114 110.938 C 55.174 110.938,24.221 93.436,24.921 92.735 C 26.992 90.665,56.801 74.274,57.813 74.650 C 58.457 74.889,65.916 79.021,74.387 83.832 M359.973 83.736 C 368.251 88.488,375.179 92.627,375.368 92.932 C 375.744 93.541,344.447 110.938,342.976 110.938 C 341.774 110.938,310.150 93.715,310.178 93.076 C 310.225 92.020,342.630 74.244,343.750 74.660 C 344.395 74.900,351.695 78.984,359.973 83.736 M194.324 126.968 L 194.507 147.266 175.239 158.203 C 164.641 164.219,155.518 169.252,154.966 169.388 C 154.414 169.524,143.763 163.020,131.297 154.935 L 108.631 140.234 108.634 128.906 L 108.637 117.578 133.245 102.231 L 157.852 86.883 175.996 96.777 L 194.141 106.671 194.324 126.968 M268.230 103.125 L 291.381 117.578 291.376 128.906 L 291.372 140.234 268.715 154.937 C 256.254 163.023,245.603 169.527,245.045 169.390 C 244.487 169.253,235.359 164.219,224.761 158.203 L 205.493 147.266 205.676 126.966 L 205.859 106.667 223.828 96.822 C 239.255 88.369,242.029 87.097,243.438 87.824 C 244.340 88.291,255.497 95.176,268.230 103.125 M45.508 118.688 L 51.563 122.016 51.563 138.017 L 51.563 154.017 42.773 149.268 C 37.939 146.657,30.209 142.501,25.595 140.033 L 17.206 135.547 17.197 119.395 L 17.188 103.242 28.320 109.301 C 34.443 112.633,42.178 116.857,45.508 118.688 M382.803 119.336 L 382.794 135.547 374.405 140.033 C 369.791 142.501,362.061 146.657,357.227 149.268 L 348.438 154.017 348.438 138.012 L 348.438 122.006 365.430 112.645 C 374.775 107.497,382.510 103.249,382.617 103.205 C 382.725 103.161,382.808 110.420,382.803 119.336 M96.859 119.727 L 96.844 135.547 80.063 144.652 L 63.281 153.757 63.304 137.621 L 63.326 121.484 79.515 112.716 C 88.418 107.893,95.967 103.938,96.289 103.927 C 96.611 103.915,96.868 111.025,96.859 119.727 M320.393 112.695 L 336.675 121.484 336.697 137.621 L 336.719 153.757 319.937 144.652 L 303.156 135.547 303.141 119.727 C 303.132 111.025,303.347 103.906,303.618 103.906 C 303.889 103.906,311.438 107.861,320.393 112.695 M148.210 199.925 L 148.047 219.771 125.498 235.667 C 113.096 244.410,102.549 251.545,102.060 251.525 C 101.572 251.504,92.734 246.614,82.422 240.659 L 63.672 229.832 63.468 198.615 L 63.264 167.398 81.041 157.689 L 98.817 147.979 123.595 164.029 L 148.373 180.078 148.210 199.925 M321.298 158.955 L 336.736 167.336 336.532 198.612 L 336.328 229.889 317.578 240.682 C 307.266 246.619,298.438 251.496,297.960 251.519 C 297.483 251.543,286.936 244.410,274.523 235.668 L 251.953 219.773 251.794 199.926 L 251.635 180.078 276.403 163.979 L 301.172 147.879 303.516 149.227 C 304.805 149.969,312.807 154.346,321.298 158.955 M216.903 167.356 C 233.161 176.642,233.558 176.928,231.614 177.947 C 230.514 178.523,222.977 182.623,214.865 187.057 L 200.115 195.121 183.295 185.987 L 166.474 176.854 183.042 167.356 C 192.154 162.132,199.741 157.848,199.901 157.835 C 200.062 157.823,207.712 162.107,216.903 167.356 M177.805 196.622 L 194.531 205.744 194.531 221.687 C 194.531 230.791,194.230 237.518,193.829 237.370 C 193.443 237.227,185.710 233.066,176.646 228.125 L 160.165 219.141 160.160 203.320 C 160.158 194.619,160.364 187.500,160.617 187.500 C 160.871 187.500,168.605 191.605,177.805 196.622 M239.840 203.320 L 239.835 219.141 223.354 228.125 C 214.290 233.066,206.557 237.227,206.171 237.370 C 205.770 237.518,205.469 230.791,205.469 221.688 L 205.469 205.746 222.070 196.652 C 231.201 191.650,238.936 187.544,239.258 187.529 C 239.580 187.513,239.842 194.619,239.840 203.320 M174.609 240.492 L 194.141 251.211 194.323 272.676 L 194.504 294.141 172.606 306.561 C 148.036 320.496,148.438 320.149,148.438 327.525 L 148.438 332.828 128.516 319.531 L 108.594 306.235 108.610 284.172 L 108.626 262.109 131.462 245.965 C 144.021 237.086,154.473 229.810,154.688 229.797 C 154.902 229.784,163.867 234.596,174.609 240.492 M268.627 246.094 L 291.396 262.109 291.206 284.330 L 291.016 306.551 271.484 319.553 L 251.953 332.555 251.563 326.940 C 251.052 319.608,252.400 320.743,227.325 306.522 L 205.496 294.141 205.677 272.730 L 205.859 251.320 225.391 240.552 C 236.133 234.630,245.132 229.851,245.390 229.931 C 245.647 230.012,256.104 237.285,268.627 246.094 M73.654 249.319 C 82.773 254.531,90.307 258.852,90.396 258.922 C 90.486 258.991,83.030 263.161,73.829 268.187 L 57.100 277.327 40.356 268.183 L 23.612 259.038 40.126 249.514 C 49.209 244.275,56.738 239.957,56.857 239.917 C 56.977 239.877,64.535 244.108,73.654 249.319 M360.249 249.755 L 376.357 259.055 359.629 268.191 L 342.900 277.327 326.145 268.173 C 310.642 259.704,309.521 258.949,311.140 258.063 C 312.103 257.537,319.570 253.242,327.734 248.520 C 335.898 243.797,342.930 240.051,343.359 240.194 C 343.789 240.338,351.389 244.640,360.249 249.755 M34.785 278.697 L 51.563 287.863 51.563 303.697 C 51.563 312.406,51.378 319.531,51.153 319.531 C 50.928 319.531,43.193 315.407,33.965 310.365 L 17.187 301.199 17.188 285.365 C 17.188 276.657,17.372 269.531,17.597 269.531 C 17.822 269.531,25.557 273.656,34.785 278.697 M96.875 285.399 L 96.875 301.266 85.352 307.587 C 79.014 311.063,71.448 315.209,68.539 316.800 L 63.249 319.692 63.460 303.549 L 63.672 287.405 79.688 278.521 C 88.496 273.635,95.967 269.614,96.289 269.585 C 96.611 269.555,96.875 276.672,96.875 285.399 M320.703 278.739 L 336.328 287.312 336.540 303.505 L 336.751 319.699 332.633 317.396 C 330.369 316.130,322.803 311.988,315.820 308.192 L 303.125 301.290 303.125 285.327 C 303.125 272.864,303.339 269.452,304.102 269.765 C 304.639 269.986,312.109 274.024,320.703 278.739 M382.813 285.365 L 382.813 301.199 366.035 310.365 C 356.807 315.407,349.072 319.531,348.847 319.531 C 348.622 319.531,348.438 312.406,348.438 303.698 L 348.438 287.864 365.039 278.739 C 374.170 273.721,381.904 269.596,382.227 269.573 C 382.549 269.550,382.813 276.657,382.813 285.365 M216.903 314.231 C 233.161 323.517,233.558 323.803,231.614 324.822 C 230.514 325.398,222.952 329.512,214.808 333.964 L 200.001 342.058 183.245 332.889 L 166.490 323.720 183.050 314.227 C 192.157 309.005,199.741 304.723,199.901 304.710 C 200.062 304.698,207.712 308.982,216.903 314.231 M177.805 343.497 L 194.531 352.619 194.531 368.562 C 194.531 377.666,194.230 384.393,193.829 384.245 C 193.443 384.102,185.710 379.941,176.646 375.000 L 160.165 366.016 160.160 350.195 C 160.158 341.494,160.364 334.375,160.617 334.375 C 160.871 334.375,168.605 338.480,177.805 343.497 M239.840 350.195 L 239.835 366.016 223.354 375.000 C 214.290 379.941,206.557 384.102,206.171 384.245 C 205.770 384.393,205.469 377.666,205.469 368.563 L 205.469 352.621 222.070 343.527 C 231.201 338.525,238.936 334.419,239.258 334.404 C 239.580 334.388,239.842 341.494,239.840 350.195 " stroke="none" fill="url(#Gradient1)" fill-rule="evenodd"></path></g></svg>