<svg id="svg" version="1.1" xmlns="http://www.w3.org/2000/svg" xmlns:xlink="http://www.w3.org/1999/xlink" width="400" height="400" viewBox="0, 0, 400,400"><defs><linearGradient id="Gradient1" x1="0" x2="1" y1="1" y2="0"><stop offset="0%" stop-color="#f21368"/><stop offset="100%" stop-color="#4f0ff0"/></linearGradient></defs><g id="svgg"><path id="path0" d="M257.031 12.241 C 168.732 26.222,133.300 130.326,195.628 192.654 C 263.652 260.678,378.780 210.446,375.557 114.147 C 373.476 51.989,316.325 2.852,257.031 12.241 M257.813 48.047 L 257.813 59.375 255.148 59.375 C 232.323 59.375,216.204 87.876,226.540 109.962 C 233.584 125.015,243.429 129.674,269.715 130.394 L 286.695 130.859 289.549 133.714 C 294.892 139.060,293.742 147.823,287.229 151.385 C 285.219 152.485,282.250 152.776,271.094 152.969 C 253.340 153.276,250.012 151.847,247.328 142.773 C 246.966 141.548,245.674 141.406,234.839 141.406 L 222.754 141.406 223.143 144.336 C 225.442 161.685,237.247 174.442,252.797 176.381 L 257.422 176.958 257.639 187.698 C 257.893 200.230,258.627 199.533,248.330 196.536 C 188.084 179.005,168.697 104.085,212.954 59.829 C 224.371 48.411,245.590 37.257,256.836 36.762 C 257.574 36.729,257.813 39.482,257.813 48.047 M290.119 38.252 C 370.685 58.857,371.316 176.338,290.972 196.886 C 281.299 199.360,282.031 200.095,282.031 187.906 C 282.031 176.016,281.320 177.192,289.116 176.188 C 318.617 172.387,327.436 129.058,302.128 112.260 C 294.296 107.061,290.344 106.250,272.846 106.250 C 252.546 106.250,247.443 103.898,247.443 94.541 C 247.443 85.391,251.808 83.409,271.248 83.730 L 286.636 83.984 289.430 86.694 C 291.292 88.500,292.381 90.390,292.696 92.358 L 293.168 95.313 305.178 95.313 L 317.188 95.313 317.188 91.939 C 317.188 76.101,300.748 59.375,285.181 59.375 L 282.031 59.375 282.031 48.047 C 282.031 39.099,282.251 36.719,283.078 36.719 C 283.654 36.719,286.822 37.409,290.119 38.252 M99.825 224.942 C 85.283 228.100,72.800 233.434,60.694 241.664 L 53.028 246.875 26.514 246.875 L 0.000 246.875 0.000 300.000 L 0.000 353.125 29.381 353.125 L 58.762 353.125 141.197 370.703 C 186.537 380.371,224.204 388.267,224.902 388.249 C 226.718 388.203,399.477 299.616,399.833 298.548 C 399.995 298.060,397.902 293.919,395.181 289.346 C 381.360 266.113,361.132 254.452,336.777 255.675 C 325.508 256.241,322.129 257.601,292.533 273.474 C 278.904 280.783,267.690 286.666,267.611 286.546 C 267.533 286.426,266.710 284.452,265.781 282.160 C 255.920 257.807,237.367 247.465,202.751 247.026 L 181.675 246.759 176.580 243.025 C 154.322 226.714,124.268 219.634,99.825 224.942 M135.547 249.601 C 145.820 252.451,159.361 259.981,167.693 267.476 L 171.714 271.094 194.719 271.094 C 220.130 271.094,222.511 271.456,230.406 276.522 C 236.055 280.148,243.750 289.495,243.750 292.731 C 243.750 293.559,234.060 293.750,192.188 293.750 L 140.625 293.750 140.625 305.859 L 140.625 317.969 200.907 317.969 L 261.189 317.969 295.343 299.672 C 336.216 277.777,337.568 277.321,350.060 281.208 C 355.087 282.773,365.248 289.017,364.238 289.922 C 361.807 292.101,221.908 362.732,220.313 362.586 C 219.238 362.488,185.137 355.302,144.531 346.618 L 70.703 330.829 70.499 297.882 L 70.296 264.936 72.952 262.910 C 90.004 249.904,116.405 244.291,135.547 249.601 M46.094 300.000 L 46.094 328.906 34.766 328.906 L 23.438 328.906 23.438 300.000 L 23.438 271.094 34.766 271.094 L 46.094 271.094 46.094 300.000 " stroke="none" fill="url(#Gradient1)" fill-rule="evenodd"></path></g></svg>