<svg id="svg" version="1.1" xmlns="http://www.w3.org/2000/svg" xmlns:xlink="http://www.w3.org/1999/xlink" width="400" height="400" viewBox="0, 0, 400,400"><defs><linearGradient id="Gradient1" x1="0" x2="1" y1="1" y2="0"><stop offset="0%" stop-color="#ffcb00"/><stop offset="100%" stop-color="#ff7600"/></linearGradient></defs><g id="svgg"><path id="path0" d="M92.969 13.625 C 80.775 16.185,67.941 22.075,66.388 25.826 C 64.588 30.172,65.683 31.590,88.518 54.500 L 110.525 76.577 99.411 87.692 L 88.296 98.806 66.577 77.137 C 51.664 62.260,44.333 55.469,43.183 55.469 C 30.722 55.469,25.495 92.381,34.294 118.248 C 48.229 159.220,95.489 182.388,136.050 168.132 L 140.453 166.585 145.675 171.847 L 150.897 177.109 149.294 182.500 C 145.519 195.188,145.157 206.098,147.988 221.875 C 148.447 224.434,148.114 225.011,142.794 230.890 C 139.667 234.345,135.423 239.059,133.363 241.366 L 129.617 245.560 126.722 242.755 C 120.179 236.412,119.395 236.821,101.403 255.974 C 85.532 272.869,83.847 275.133,84.678 278.444 C 85.101 280.130,177.567 381.430,182.976 386.133 C 187.968 390.473,193.097 386.711,216.491 361.553 C 226.002 351.325,226.640 349.725,222.953 345.343 C 220.947 342.959,220.934 342.874,222.340 341.181 C 232.405 329.057,238.849 325.907,250.200 327.561 C 261.040 329.141,270.175 325.548,280.261 315.736 L 285.367 310.770 303.816 329.170 C 325.306 350.603,326.866 351.667,337.577 352.193 C 359.766 353.284,375.635 332.939,368.686 312.311 C 366.362 305.412,365.903 304.864,343.480 282.255 L 323.170 261.776 326.733 258.037 C 328.693 255.980,333.428 251.133,337.256 247.266 C 359.811 224.475,359.386 199.412,336.328 192.559 C 333.223 191.636,333.200 191.600,332.751 187.026 C 331.546 174.773,322.113 166.069,309.999 166.033 L 303.982 166.016 304.503 164.063 C 309.454 145.492,289.370 128.368,271.030 135.522 C 270.054 135.903,269.594 135.108,268.839 131.731 C 263.615 108.388,231.824 111.055,214.441 136.295 L 211.459 140.625 206.302 140.625 L 201.145 140.625 192.623 132.076 L 184.101 123.528 186.188 116.647 C 199.411 73.061,175.008 28.299,130.859 15.156 C 122.241 12.591,101.829 11.766,92.969 13.625 M126.172 27.711 C 164.672 37.858,186.233 80.123,171.817 117.188 C 168.294 126.248,168.322 126.342,177.442 135.609 L 185.352 143.647 182.438 144.865 C 177.044 147.119,169.017 153.053,163.484 158.878 L 157.988 164.664 151.893 158.534 C 144.671 151.268,143.236 150.774,136.996 153.396 C 96.504 170.409,51.512 145.602,43.790 102.005 C 42.447 94.425,43.256 77.012,45.042 75.043 C 45.216 74.851,54.416 83.728,65.487 94.769 C 91.031 120.245,85.800 119.964,108.750 97.093 C 132.157 73.767,132.546 79.110,105.469 51.967 C 93.867 40.338,84.375 30.618,84.375 30.369 C 84.375 26.367,113.939 24.487,126.172 27.711 M253.594 131.563 C 257.769 135.738,254.960 148.224,248.083 156.059 C 247.987 156.169,244.371 154.215,240.048 151.718 C 235.725 149.220,230.747 146.701,228.985 146.120 C 224.843 144.753,224.889 144.546,230.664 138.517 C 240.121 128.643,248.219 126.187,253.594 131.563 M286.706 149.508 C 294.583 154.721,292.733 165.502,281.868 177.692 L 277.926 182.114 271.580 176.001 C 268.090 172.639,263.895 168.746,262.258 167.349 C 258.426 164.080,258.732 163.119,265.905 155.901 C 274.985 146.765,280.158 145.175,286.706 149.508 M214.063 155.125 C 237.510 160.643,276.804 193.388,272.756 204.035 C 269.410 212.835,253.813 209.418,231.693 195.040 C 211.619 181.991,199.906 190.089,194.573 220.703 C 192.875 230.448,193.202 235.938,195.604 238.003 C 199.441 241.304,206.250 239.197,206.250 234.709 C 206.250 233.666,206.512 232.813,206.833 232.813 C 207.774 232.813,275.000 300.300,275.000 301.245 C 275.000 302.961,265.567 311.050,261.273 313.017 C 257.087 314.933,256.560 314.992,250.506 314.235 C 237.244 312.576,227.695 316.132,217.359 326.579 L 211.208 332.797 177.675 297.132 C 159.231 277.516,142.974 260.121,141.547 258.475 L 138.954 255.484 150.141 242.937 C 163.587 227.857,163.229 228.615,161.283 219.339 C 153.001 179.868,179.939 147.093,214.063 155.125 M313.227 180.050 C 325.393 186.341,321.916 196.054,299.273 219.026 C 278.932 239.663,274.740 242.428,268.380 239.410 C 260.099 235.481,260.458 222.612,268.876 221.615 C 280.552 220.232,288.453 209.286,286.157 197.673 L 285.383 193.762 289.454 189.912 C 299.022 180.863,307.776 177.231,313.227 180.050 M226.697 207.865 C 235.004 213.282,244.351 218.087,248.710 219.181 C 250.523 219.636,250.814 220.025,250.364 221.390 C 245.939 234.790,252.866 248.883,265.746 252.686 C 268.863 253.606,268.878 253.630,269.190 258.033 C 270.572 277.604,291.763 285.824,309.454 273.652 L 313.012 271.204 333.821 292.047 C 347.569 305.818,355.038 313.876,355.831 315.795 C 361.485 329.480,345.949 344.074,332.628 337.591 C 330.299 336.457,311.233 317.900,269.233 275.888 L 209.170 215.807 210.832 210.887 C 214.221 200.850,215.550 200.597,226.697 207.865 M336.015 207.086 C 342.997 212.058,341.727 221.627,332.640 232.525 C 326.415 239.991,301.891 262.983,298.297 264.723 C 285.274 271.027,275.995 255.664,288.153 247.928 C 294.465 243.912,322.406 215.682,326.184 209.503 C 329.558 203.986,331.121 203.602,336.015 207.086 M164.481 302.796 C 188.528 328.396,208.292 349.582,208.401 349.874 C 208.510 350.167,203.873 355.123,198.097 360.888 L 187.595 371.368 184.096 367.520 C 182.172 365.404,162.526 344.160,140.438 320.313 L 100.279 276.953 110.019 266.602 C 115.376 260.908,119.984 256.250,120.259 256.250 C 120.534 256.250,140.433 277.196,164.481 302.796 " stroke="none" fill="url(#Gradient1)" fill-rule="evenodd"></path></g></svg>