<svg xmlns="http://www.w3.org/2000/svg" xmlns:xlink="http://www.w3.org/1999/xlink" width="100" height="100" viewBox="0, 0, 400,400"><defs><linearGradient id="Gradient1" x1="0" x2="1" y1="1" y2="0"><stop offset="0%" stop-color="#f21368"/><stop offset="100%" stop-color="#4f0ff0"/></linearGradient></defs><g id="svgg"><path id="path0" d="M93.053 43.814 C 84.012 45.589,74.584 52.588,70.513 60.547 C 66.770 67.865,66.425 70.702,66.416 94.336 L 66.406 116.406 46.289 116.416 C 17.123 116.429,9.208 119.583,2.636 133.811 L 0.391 138.672 0.391 236.719 L 0.391 334.766 2.469 339.199 C 6.412 347.610,13.499 353.543,22.359 355.851 C 30.281 357.914,138.666 357.585,145.492 355.477 C 153.548 352.989,160.169 347.449,163.477 340.430 L 165.225 336.719 224.054 336.719 L 282.884 336.719 284.872 334.730 C 287.371 332.231,287.478 311.905,285.015 307.422 C 280.348 298.924,275.049 296.629,259.180 296.235 L 246.875 295.930 246.875 283.121 L 246.875 270.313 273.438 270.313 L 300.000 270.313 300.017 305.664 C 300.043 359.167,297.965 357.031,350.000 357.031 C 387.038 357.031,388.205 356.870,393.934 350.982 C 400.352 344.385,399.964 349.163,399.975 276.563 L 399.985 212.109 398.138 208.203 C 393.038 197.416,390.180 196.538,359.180 196.232 L 333.594 195.980 333.584 134.123 C 333.575 67.645,333.630 68.647,329.487 60.547 C 325.271 52.305,316.026 45.604,306.335 43.766 C 301.126 42.778,98.096 42.824,93.053 43.814 M308.244 59.117 C 312.171 61.219,315.894 64.964,317.737 68.666 C 319.052 71.307,319.141 75.412,319.141 133.949 L 319.141 196.414 316.199 197.026 C 306.254 199.092,300.051 206.896,300.017 217.383 L 300.000 222.656 233.594 222.656 L 167.188 222.656 167.188 184.091 C 167.188 131.982,165.829 127.075,149.221 119.205 L 144.141 116.797 112.305 116.569 L 80.469 116.340 80.469 95.006 C 80.469 69.577,81.327 66.080,88.826 60.941 C 94.703 56.914,89.777 57.076,201.172 57.255 L 305.078 57.422 308.244 59.117 M145.074 132.990 C 149.164 135.650,152.254 140.812,152.871 146.014 L 153.343 150.000 83.703 150.000 L 14.063 150.000 14.063 146.535 C 14.062 142.085,14.915 139.926,18.105 136.292 C 23.498 130.150,19.856 130.459,84.375 130.671 L 141.797 130.859 145.074 132.990 M153.125 236.719 L 153.125 309.375 83.594 309.375 L 14.063 309.375 14.063 236.719 L 14.063 164.063 83.594 164.063 L 153.125 164.063 153.125 236.719 M381.603 211.262 C 384.894 212.637,385.938 214.521,385.938 219.089 L 385.938 222.656 350.000 222.656 L 314.063 222.656 314.063 219.089 C 314.063 214.590,315.095 212.657,318.226 211.295 C 321.902 209.696,377.785 209.667,381.603 211.262 M300.000 246.484 L 300.000 256.250 233.594 256.250 L 167.188 256.250 167.188 246.484 L 167.188 236.719 233.594 236.719 L 300.000 236.719 300.000 246.484 M385.938 276.563 L 385.938 316.406 350.000 316.406 L 314.063 316.406 314.063 276.563 L 314.063 236.719 350.000 236.719 L 385.938 236.719 385.938 276.563 M232.813 283.203 L 232.813 296.094 200.000 296.094 L 167.188 296.094 167.188 283.203 L 167.188 270.313 200.000 270.313 L 232.813 270.313 232.813 283.203 M268.440 310.968 C 271.601 312.170,272.604 313.985,272.631 318.555 L 272.656 322.656 219.922 322.656 L 167.188 322.656 167.188 316.406 L 167.188 310.156 216.746 310.156 C 249.144 310.156,267.044 310.437,268.440 310.968 M152.862 327.495 C 152.162 333.405,148.971 338.107,143.844 340.786 L 139.665 342.969 83.479 342.969 C 34.451 342.969,26.924 342.814,24.389 341.755 C 18.350 339.233,14.063 333.100,14.063 326.984 L 14.063 323.438 83.703 323.438 L 153.343 323.438 152.862 327.495 M385.938 334.696 C 385.938 338.458,385.673 339.147,383.534 340.946 L 381.130 342.969 350.000 342.969 L 318.870 342.969 316.466 340.946 C 314.327 339.147,314.063 338.458,314.063 334.696 L 314.063 330.469 350.000 330.469 L 385.938 330.469 385.938 334.696 " stroke="none" fill="url(#Gradient1)" fill-rule="evenodd"></path></g></svg>