<svg id="svg" version="1.1" xmlns="http://www.w3.org/2000/svg" xmlns:xlink="http://www.w3.org/1999/xlink" width="400" height="400" viewBox="0, 0, 400,400"><defs><linearGradient id="Gradient1" x1="0" x2="1" y1="1" y2="0"><stop offset="0%" stop-color="#28e9ff"/><stop offset="100%" stop-color="#4f0ff0"/></linearGradient></defs><g id="svgg"><path id="path0" d="M114.453 9.297 C 97.930 16.963,101.368 44.641,119.174 47.312 L 122.681 47.837 122.473 69.320 L 122.266 90.802 117.947 92.138 C 100.991 97.383,86.627 112.030,81.650 129.148 L 80.358 133.594 76.873 133.594 C 67.566 133.594,60.191 141.020,60.191 150.391 C 60.191 159.637,67.617 167.165,76.758 167.183 L 78.906 167.188 78.906 209.982 C 78.906 257.155,78.815 256.250,83.594 256.250 C 88.373 256.250,88.281 257.155,88.281 209.982 L 88.281 167.188 187.500 167.188 L 286.719 167.188 286.719 228.906 L 286.719 290.625 187.500 290.625 L 88.281 290.625 88.281 283.203 C 88.281 275.217,87.143 272.656,83.594 272.656 C 80.070 272.656,78.906 275.230,78.906 283.024 L 78.906 290.268 74.110 291.179 C 54.089 294.984,56.522 324.219,76.859 324.219 C 80.298 324.219,80.336 324.249,80.856 327.325 C 82.737 338.460,94.334 353.819,106.055 360.699 L 109.375 362.648 109.409 370.191 C 109.429 374.420,109.903 379.022,110.489 380.664 L 111.535 383.594 70.238 383.594 L 28.942 383.594 27.688 385.509 C 26.387 387.494,26.750 390.485,28.426 391.590 C 28.905 391.905,105.490 392.169,198.615 392.176 L 367.933 392.188 369.271 390.144 C 370.472 388.311,370.491 387.889,369.455 386.043 L 368.300 383.984 316.600 383.594 C 270.899 383.248,264.986 383.067,265.641 382.031 C 266.049 381.387,266.388 376.589,266.394 371.371 L 266.406 361.882 270.301 359.382 C 279.930 353.203,290.353 338.775,293.022 327.930 L 293.935 324.219 297.554 324.202 C 318.468 324.102,319.358 293.348,298.518 290.879 L 294.531 290.407 294.531 228.891 L 294.531 167.375 299.148 167.041 C 319.441 165.574,318.218 134.375,297.868 134.375 L 294.018 134.375 293.079 130.306 C 289.241 113.680,270.455 94.630,255.047 91.739 L 252.344 91.232 252.332 84.874 C 252.318 77.167,251.285 74.700,247.932 74.372 C 243.923 73.979,242.969 75.687,242.969 83.259 L 242.969 89.844 229.688 89.844 L 216.406 89.844 216.406 68.750 L 216.406 47.656 229.688 47.656 L 242.969 47.656 242.969 55.129 C 242.969 64.347,243.545 65.625,247.703 65.625 C 251.691 65.625,252.344 64.091,252.344 54.724 L 252.344 47.830 255.273 47.294 C 273.468 43.967,276.651 17.026,259.766 9.280 C 254.890 7.044,119.276 7.059,114.453 9.297 M256.798 17.937 C 264.101 22.390,263.259 34.682,255.438 37.812 C 251.066 39.561,123.390 39.729,119.311 37.991 C 110.747 34.342,110.014 21.114,118.179 17.565 C 122.775 15.567,253.486 15.918,256.798 17.937 M157.813 68.750 L 157.813 89.844 144.531 89.844 L 131.250 89.844 131.250 68.750 L 131.250 47.656 144.531 47.656 L 157.813 47.656 157.813 68.750 M207.813 68.750 L 207.813 89.844 187.109 89.844 L 166.406 89.844 166.406 68.750 L 166.406 47.656 187.109 47.656 L 207.813 47.656 207.813 68.750 M250.000 99.654 C 265.684 103.339,280.251 116.665,284.328 131.055 L 285.047 133.594 187.445 133.594 C 92.364 133.594,89.844 133.556,89.844 132.122 C 89.844 121.233,108.546 103.395,123.838 99.699 C 131.000 97.967,242.653 97.928,250.000 99.654 M300.773 143.355 C 307.219 146.688,306.902 154.960,300.222 157.717 C 298.610 158.383,268.969 158.562,185.805 158.409 L 73.563 158.203 71.559 156.320 C 67.609 152.609,68.221 146.565,72.832 143.753 C 76.305 141.636,296.703 141.251,300.773 143.355 M127.031 204.276 C 117.351 208.256,112.936 215.832,112.908 228.516 C 112.857 251.206,129.260 261.065,154.492 253.511 L 158.594 252.283 158.594 239.032 L 158.594 225.781 148.438 225.781 L 138.281 225.781 138.281 229.688 L 138.281 233.594 144.141 233.594 L 150.000 233.594 150.000 239.753 C 150.000 246.955,150.142 246.847,140.676 246.864 C 128.486 246.887,123.828 241.814,123.828 228.516 C 123.828 212.348,134.811 205.663,149.190 213.079 L 153.966 215.543 155.689 211.997 L 157.412 208.450 155.300 206.633 C 150.023 202.094,135.321 200.868,127.031 204.276 M175.000 227.456 C 168.770 241.279,163.420 253.237,163.111 254.029 C 162.600 255.341,163.019 255.469,167.852 255.469 L 173.153 255.469 175.733 249.219 L 178.314 242.969 190.570 242.969 L 202.827 242.969 205.469 249.219 L 208.111 255.469 213.040 255.469 C 219.376 255.469,219.925 257.739,206.417 228.090 L 194.866 202.734 190.597 202.528 L 186.328 202.322 175.000 227.456 M234.168 203.144 C 214.135 208.203,215.545 228.076,236.328 233.600 C 248.337 236.791,249.821 237.425,250.607 239.691 C 253.178 247.104,239.547 250.185,228.040 244.793 L 222.877 242.373 221.131 245.967 L 219.385 249.562 221.607 251.361 C 235.038 262.241,260.938 255.229,260.938 240.713 C 260.938 231.649,257.971 229.474,238.512 224.274 C 230.981 222.261,228.232 216.865,232.785 213.033 C 237.122 209.384,244.979 209.660,252.247 213.717 C 256.689 216.196,256.590 216.224,258.204 211.998 L 259.589 208.371 257.724 206.943 C 253.177 203.459,240.814 201.465,234.168 203.144 M195.017 225.218 L 199.102 234.766 190.855 234.988 C 180.631 235.265,181.083 236.225,186.003 224.674 C 188.292 219.301,190.337 215.077,190.548 215.288 C 190.759 215.499,192.770 219.968,195.017 225.218 M302.812 301.875 C 306.948 306.010,305.495 313.154,300.220 314.627 C 296.189 315.753,74.849 315.371,72.860 314.235 C 67.263 311.037,68.112 302.003,74.219 299.770 C 74.863 299.535,125.963 299.314,187.773 299.280 L 300.156 299.219 302.812 301.875 M284.328 326.758 C 280.382 340.686,265.955 354.294,251.059 358.137 C 244.022 359.952,130.943 360.005,123.797 358.196 C 108.532 354.332,89.844 336.441,89.844 325.691 C 89.844 324.257,92.364 324.219,187.445 324.219 L 285.047 324.219 284.328 326.758 M257.813 371.523 C 257.813 384.560,263.408 383.594,187.881 383.594 L 124.273 383.594 121.512 381.169 C 117.913 378.009,117.059 365.730,120.508 366.737 C 129.040 369.228,243.580 369.459,252.344 367.002 C 254.707 366.340,256.904 365.759,257.227 365.711 C 257.549 365.664,257.813 368.279,257.813 371.523 M5.273 384.438 C 3.682 385.364,3.402 389.808,4.844 391.250 C 6.524 392.931,16.980 392.473,17.941 390.676 C 20.878 385.189,11.724 380.681,5.273 384.438 M378.571 384.821 C 377.119 386.274,376.954 389.923,378.281 391.250 C 379.558 392.527,393.879 392.527,395.156 391.250 C 396.683 389.723,396.315 385.330,394.583 384.402 C 392.074 383.060,380.018 383.375,378.571 384.821 " stroke="none" fill="url(#Gradient1)" fill-rule="evenodd"></path></g></svg>