<svg xmlns="http://www.w3.org/2000/svg" xmlns:xlink="http://www.w3.org/1999/xlink" width="100" height="100" viewBox="0, 0, 400,400"><g id="svgg"><path id="path0" d="M185.938 8.977 C 165.808 11.420,143.093 17.888,127.942 25.492 L 122.680 28.133 119.187 25.466 C 101.310 11.821,75.679 29.012,81.517 50.731 L 82.659 54.979 76.746 60.497 C 64.022 72.371,61.524 76.776,65.133 80.972 C 68.799 85.234,71.722 84.224,79.263 76.088 C 82.851 72.218,87.010 68.117,88.507 66.976 L 91.229 64.900 94.638 66.624 C 104.242 71.481,119.094 67.187,125.108 57.814 L 126.361 55.862 133.297 58.092 C 148.803 63.077,169.231 72.040,181.445 79.218 L 185.156 81.398 185.156 86.898 C 185.156 89.922,185.544 93.692,186.018 95.274 L 186.880 98.151 174.069 110.990 C 167.023 118.051,157.830 128.100,153.641 133.321 L 146.025 142.814 141.416 142.396 C 133.111 141.643,124.068 145.951,119.793 152.698 L 117.578 156.193 110.465 156.221 C 96.137 156.279,71.919 158.783,54.102 162.048 C 48.838 163.013,44.531 163.517,44.531 163.168 C 44.531 162.819,42.557 160.560,40.144 158.146 L 35.756 153.759 38.672 144.653 C 42.310 133.292,47.064 122.418,53.126 111.592 C 59.371 100.441,58.768 95.312,51.212 95.312 C 45.694 95.313,32.088 121.493,24.974 145.799 L 23.346 151.363 19.805 151.848 C -3.782 155.081,-7.613 192.382,15.058 198.073 C 16.918 198.539,16.979 198.800,17.499 208.455 C 20.195 258.500,42.360 307.528,76.781 339.588 L 81.959 344.410 81.080 349.137 C 77.340 369.247,101.933 384.631,118.717 372.680 L 120.924 371.108 129.017 374.974 C 176.952 397.868,240.380 397.851,288.968 374.932 C 297.128 371.083,297.149 371.078,298.778 372.609 C 314.853 387.711,343.006 369.786,337.344 348.053 L 336.328 344.153 344.141 336.331 C 402.407 277.990,417.059 186.972,380.017 113.452 L 374.396 102.294 376.846 97.827 C 386.649 79.957,368.520 57.473,349.164 63.495 L 345.594 64.606 339.271 58.848 L 332.948 53.089 333.752 50.178 C 339.295 30.104,314.524 12.749,297.078 24.484 L 293.359 26.985 285.938 23.641 C 257.106 10.651,218.635 5.010,185.938 8.977 M239.063 22.650 C 258.856 26.142,286.730 35.908,286.708 39.343 C 286.683 43.237,285.803 44.508,282.528 45.373 C 271.549 48.276,239.865 62.094,228.722 68.840 L 225.804 70.606 224.025 68.935 C 216.975 62.312,202.919 62.221,193.764 68.740 L 191.503 70.350 183.877 66.054 C 170.949 58.770,145.000 47.883,132.617 44.547 C 130.576 43.997,128.906 43.094,128.906 42.540 C 128.906 41.987,128.715 41.035,128.481 40.425 C 127.478 37.813,155.430 27.375,172.827 23.864 C 192.958 19.802,220.101 19.304,239.063 22.650 M110.889 35.069 C 116.026 38.725,117.531 44.057,114.938 49.415 C 110.262 59.074,96.697 57.931,93.742 47.629 C 90.978 37.992,102.813 29.323,110.889 35.069 M313.412 33.617 C 316.931 34.594,320.842 38.879,321.521 42.500 C 323.609 53.626,309.916 60.748,302.189 52.556 C 294.221 44.110,302.273 30.523,313.412 33.617 M292.335 60.617 C 300.306 69.264,315.558 71.381,323.507 64.944 L 325.325 63.472 330.531 68.190 L 335.736 72.908 334.334 75.321 C 329.251 84.066,331.761 97.663,339.790 104.881 L 343.520 108.235 339.836 119.157 C 332.750 140.162,324.669 158.631,314.640 176.744 L 308.252 188.281 303.405 188.281 L 298.559 188.281 293.176 177.930 C 279.396 151.428,259.529 125.146,238.616 105.752 L 230.603 98.322 231.796 94.821 C 232.561 92.577,232.876 89.538,232.673 86.358 L 232.357 81.397 241.765 76.292 C 256.469 68.314,282.153 57.680,288.070 57.122 C 288.598 57.072,290.518 58.645,292.335 60.617 M359.632 76.066 C 361.035 76.652,363.119 78.244,364.263 79.604 C 373.513 90.597,357.275 104.979,347.332 94.600 C 339.030 85.935,348.630 71.469,359.632 76.066 M214.844 78.042 C 218.613 80.741,220.485 84.410,220.116 88.377 C 219.059 99.731,205.089 103.197,199.215 93.562 C 193.094 83.523,205.413 71.290,214.844 78.042 M208.594 111.311 C 213.766 111.312,216.053 110.936,218.937 109.610 L 222.640 107.908 234.191 119.383 C 251.284 136.367,265.336 154.512,276.870 174.497 C 289.368 196.152,289.224 197.492,275.118 190.837 C 243.047 175.705,205.826 164.534,171.530 159.747 C 166.828 159.091,162.860 158.433,162.712 158.285 C 162.563 158.136,161.262 156.055,159.819 153.659 L 157.196 149.302 163.905 140.862 C 167.595 136.220,176.158 126.871,182.935 120.087 L 195.255 107.752 198.604 109.531 C 201.331 110.979,203.187 111.310,208.594 111.311 M370.509 122.656 C 389.729 163.665,393.041 211.352,379.644 254.187 L 377.235 261.889 375.147 260.046 C 373.999 259.033,370.420 255.742,367.193 252.734 C 358.133 244.288,345.910 234.293,334.941 226.359 L 324.959 219.141 325.447 215.143 C 326.120 209.633,324.585 203.045,321.593 198.598 L 319.080 194.864 325.437 183.422 C 336.216 164.022,349.660 132.574,354.280 115.952 L 355.601 111.201 359.636 110.483 L 363.672 109.766 365.534 112.891 C 366.559 114.609,368.798 119.004,370.509 122.656 M144.543 156.134 C 153.204 160.737,152.901 172.768,144.025 176.694 C 130.916 182.493,121.616 163.595,134.066 156.458 C 137.786 154.325,140.955 154.227,144.543 156.134 M30.308 166.292 C 35.557 170.030,36.374 178.137,32.004 183.115 C 25.002 191.090,12.240 186.018,12.240 175.261 C 12.240 166.396,22.972 161.068,30.308 166.292 M116.327 172.640 C 116.875 174.779,118.315 178.007,119.527 179.811 L 121.731 183.093 119.763 187.445 C 99.533 232.172,90.423 282.027,94.751 324.323 L 95.361 330.286 92.509 331.968 C 88.876 334.112,88.273 333.747,79.775 324.269 C 51.567 292.808,33.108 249.244,30.058 206.932 L 29.516 199.412 33.771 197.464 C 41.353 193.992,46.263 187.498,47.361 179.486 L 47.836 176.017 62.395 173.971 C 74.621 172.252,86.521 170.828,101.563 169.281 C 103.066 169.127,106.779 168.944,109.813 168.875 L 115.330 168.750 116.327 172.640 M170.313 172.279 C 198.367 175.655,239.276 187.984,269.514 202.175 L 277.700 206.017 277.760 211.797 C 277.806 216.278,278.276 218.572,279.849 221.998 L 281.878 226.417 273.663 236.060 C 236.599 279.566,188.567 314.219,136.453 335.052 C 124.539 339.815,125.530 339.721,122.584 336.365 C 120.163 333.607,111.794 328.906,109.306 328.906 C 107.260 328.906,106.674 322.910,106.711 302.344 C 106.777 265.328,114.690 228.427,129.251 197.243 L 132.545 190.189 138.733 190.211 C 149.310 190.250,157.930 184.698,161.803 175.354 C 163.067 172.305,163.924 171.179,164.795 171.422 C 165.466 171.609,167.949 171.995,170.313 172.279 M307.663 202.363 C 317.233 208.198,312.892 223.425,301.655 223.435 C 290.470 223.444,285.968 208.970,295.204 202.694 C 298.778 200.265,303.995 200.127,307.663 202.363 M330.500 238.970 C 343.223 248.544,351.411 255.444,363.558 266.828 L 371.898 274.645 367.895 282.440 C 358.962 299.833,341.672 322.781,331.096 331.279 C 328.055 333.723,328.033 333.728,325.292 332.427 L 322.540 331.122 323.041 323.569 C 324.789 297.221,324.030 292.969,317.578 292.969 C 312.182 292.969,312.019 293.454,311.030 312.460 C 310.550 321.677,309.894 329.438,309.571 329.707 C 309.248 329.977,307.438 330.683,305.548 331.277 C 296.714 334.055,290.358 343.587,290.206 354.287 L 290.117 360.527 281.973 364.153 C 235.243 384.959,180.912 384.897,135.264 363.985 L 128.045 360.678 128.573 356.316 C 129.222 350.964,127.559 352.229,141.100 346.789 C 196.236 324.640,247.909 287.215,284.726 242.766 C 290.471 235.830,291.967 234.448,293.277 234.864 C 294.151 235.141,296.627 235.584,298.781 235.848 L 302.696 236.328 304.427 243.750 C 305.379 247.832,306.743 254.688,307.459 258.984 C 308.962 268.009,310.419 270.313,314.625 270.313 C 317.556 270.313,321.095 267.445,321.091 265.075 C 321.087 262.595,318.735 249.861,316.660 241.078 C 314.723 232.880,314.699 232.506,316.065 231.508 C 318.312 229.865,318.595 230.011,330.500 238.970 M110.502 342.932 C 117.836 347.766,118.054 357.447,110.938 362.305 C 102.600 367.996,91.126 359.744,93.763 349.952 C 95.697 342.771,104.596 339.039,110.502 342.932 M320.197 344.327 C 327.858 350.047,326.886 360.355,318.301 364.429 C 311.855 367.487,303.840 362.825,302.620 355.305 C 301.130 346.125,312.823 338.822,320.197 344.327 " stroke="none" fill="#f21368" fill-rule="evenodd"></path></g></svg>