<svg xmlns="http://www.w3.org/2000/svg" xmlns:xlink="http://www.w3.org/1999/xlink" width="100" height="100" viewBox="0, 0, 400,400"><defs><linearGradient id="Gradient1" x1="0" x2="1" y1="1" y2="0"><stop offset="0%" stop-color="#28e9ff"/><stop offset="100%" stop-color="#4f0ff0"/></linearGradient></defs><g id="svgg"><path id="path0" d="M176.172 1.127 C 108.340 9.953,51.816 49.662,21.202 109.996 C 18.156 116.000,15.103 121.127,14.419 121.390 C 13.612 121.699,13.340 122.392,13.647 123.359 C 13.918 124.213,12.457 129.814,10.233 136.449 C -36.384 275.537,77.710 415.958,223.442 398.854 C 387.701 379.577,458.999 179.223,343.793 60.653 C 300.249 15.838,236.660 -6.744,176.172 1.127 M230.078 16.385 C 243.366 18.777,264.212 24.631,268.183 27.085 C 268.630 27.362,266.743 28.746,263.990 30.162 L 258.984 32.737 245.223 32.775 C 227.944 32.822,229.426 31.795,220.272 50.080 C 210.018 70.565,210.180 71.119,228.116 77.007 L 239.434 80.722 252.887 77.395 L 266.339 74.067 275.943 77.224 C 285.410 80.337,315.148 86.727,320.143 86.721 C 322.013 86.719,324.872 85.269,330.690 81.369 L 338.672 76.020 343.812 82.346 C 348.903 88.612,357.813 100.989,357.813 101.795 C 357.813 102.026,350.693 104.594,341.992 107.504 L 326.172 112.793 308.594 109.836 C 298.926 108.210,290.978 106.825,290.932 106.760 C 290.887 106.694,287.989 102.348,284.493 97.102 C 276.517 85.132,278.434 85.765,251.118 86.086 L 230.486 86.328 218.733 98.047 C 212.269 104.492,206.792 110.501,206.561 111.400 C 206.143 113.034,212.719 160.908,213.721 163.519 C 214.422 165.345,215.241 165.742,241.574 177.025 C 267.332 188.062,265.338 187.712,280.469 183.844 L 291.798 180.948 299.024 185.806 L 306.250 190.665 306.250 202.715 L 306.250 214.764 319.531 241.383 L 332.813 268.003 332.813 281.318 C 332.812 296.940,332.434 295.904,341.485 305.086 L 348.423 312.124 344.763 316.804 C 296.881 378.020,209.284 402.170,135.388 374.527 C 46.369 341.226,-4.710 243.690,19.812 153.832 L 21.604 147.266 24.185 155.078 C 27.451 164.966,26.392 163.894,45.555 176.709 L 61.812 187.581 57.469 192.272 L 53.125 196.964 53.125 209.427 L 53.125 221.891 60.472 236.568 C 69.404 254.414,67.257 252.695,84.943 256.163 L 99.609 259.038 100.000 291.433 L 100.391 323.828 106.894 339.844 C 115.372 360.720,113.406 358.506,127.684 363.265 C 146.583 369.563,146.875 369.313,146.875 346.760 L 146.875 330.510 158.008 322.176 C 174.925 309.510,173.438 311.644,173.438 300.040 L 173.438 290.216 185.988 277.725 C 201.188 262.597,199.356 265.996,203.546 245.161 C 207.673 224.644,207.668 224.735,204.748 221.815 L 202.464 219.531 189.950 219.531 L 177.436 219.531 168.692 204.883 C 163.882 196.826,159.108 189.355,158.082 188.281 L 156.217 186.328 133.560 186.089 L 110.903 185.849 105.150 174.370 C 99.516 163.129,97.674 160.463,95.313 160.134 C 91.481 159.601,89.690 160.381,85.201 164.537 L 80.469 168.918 80.469 163.717 C 80.469 157.245,79.662 155.698,72.714 148.849 L 67.187 143.401 67.187 138.107 C 67.188 135.195,67.451 132.806,67.773 132.798 C 68.096 132.790,77.617 131.419,88.931 129.751 L 109.503 126.719 127.322 116.012 L 145.141 105.306 154.718 89.370 C 165.944 70.693,163.843 72.802,174.848 69.166 C 185.781 65.554,185.521 65.847,190.098 52.003 C 196.053 33.993,196.475 34.430,168.691 29.801 C 152.663 27.131,148.595 26.195,146.332 24.657 L 143.566 22.777 149.322 21.057 C 172.627 14.094,206.476 12.136,230.078 16.385 M135.301 34.471 L 143.718 40.036 160.335 42.810 C 169.475 44.335,177.040 45.639,177.146 45.706 C 177.252 45.773,176.698 47.734,175.916 50.063 L 174.493 54.297 165.389 57.433 C 154.290 61.255,155.813 59.704,144.266 78.949 L 134.723 94.856 119.478 104.016 L 104.233 113.177 80.828 116.507 C 58.471 119.688,57.326 119.933,55.273 121.968 L 53.125 124.099 53.125 136.759 L 53.125 149.420 59.766 156.206 L 66.406 162.992 66.406 168.217 L 66.406 173.442 52.913 164.451 L 39.419 155.459 34.464 140.525 L 29.509 125.591 31.356 121.585 C 48.618 84.134,79.514 52.493,117.578 33.284 C 122.305 30.899,126.332 28.938,126.529 28.927 C 126.725 28.916,130.673 31.410,135.301 34.471 M291.331 38.019 C 303.598 44.835,329.624 64.500,328.125 65.820 C 327.910 66.010,325.609 67.590,323.010 69.332 L 318.286 72.499 303.870 69.582 C 295.941 67.977,284.414 65.008,278.256 62.983 L 267.058 59.301 253.754 62.560 L 240.449 65.819 235.812 64.415 C 229.783 62.590,229.849 62.987,234.143 54.343 L 237.853 46.875 250.088 46.875 L 262.323 46.875 273.935 41.067 C 280.322 37.873,285.689 35.236,285.862 35.208 C 286.036 35.179,288.497 36.445,291.331 38.019 M275.571 109.366 C 282.847 120.376,281.336 119.658,305.920 123.774 L 327.073 127.316 345.745 121.080 C 356.014 117.650,364.630 114.844,364.891 114.844 C 365.152 114.844,366.809 117.920,368.574 121.680 C 394.457 176.838,391.407 241.110,360.398 294.004 L 356.809 300.125 351.842 295.202 L 346.875 290.280 346.875 277.211 L 346.875 264.142 333.594 237.523 L 320.313 210.903 320.313 198.067 C 320.313 182.019,320.927 183.143,307.155 174.023 C 293.708 165.120,295.253 165.370,279.083 169.467 L 267.151 172.489 247.052 163.883 C 235.998 159.150,226.834 155.172,226.689 155.044 C 226.544 154.916,225.181 146.133,223.661 135.527 L 220.896 116.242 228.597 108.512 L 236.299 100.781 253.110 100.800 L 269.922 100.820 275.571 109.366 M95.778 187.695 C 102.557 201.282,99.388 200.000,126.201 200.000 L 149.005 200.000 158.140 215.244 C 169.983 235.010,168.218 233.594,181.022 233.594 C 191.424 233.594,191.436 233.596,191.022 235.352 C 190.794 236.318,189.726 241.504,188.649 246.875 L 186.690 256.641 173.228 270.125 L 159.766 283.610 159.489 293.410 L 159.212 303.211 146.757 312.589 C 132.132 323.601,132.813 322.363,132.813 337.941 C 132.813 344.574,132.699 350.000,132.561 350.000 C 132.423 350.000,130.753 349.466,128.850 348.814 L 125.391 347.627 119.727 333.374 L 114.063 319.121 114.063 286.098 C 114.063 243.231,116.384 247.928,92.914 243.310 L 78.406 240.455 72.797 229.205 L 67.187 217.955 67.188 210.354 L 67.188 202.753 79.092 190.829 C 85.640 184.272,91.086 178.906,91.195 178.906 C 91.304 178.906,93.366 182.861,95.778 187.695 " stroke="none" fill="url(#Gradient1)" fill-rule="evenodd"></path></g></svg>