<svg id="svg" version="1.1" xmlns="http://www.w3.org/2000/svg" xmlns:xlink="http://www.w3.org/1999/xlink" width="100" height="100" viewBox="0, 0, 400,400"><defs><linearGradient id="Gradient1" x1="0" x2="1" y1="1" y2="0"><stop offset="0%" stop-color="#f21368"/><stop offset="100%" stop-color="#4f0ff0"/></linearGradient></defs><g id="svgg"><path id="path0" d="M52.284 2.284 L 50.000 4.567 50.000 134.554 L 50.000 264.541 28.142 265.445 C 1.143 266.561,0.000 266.964,0.000 275.375 C 0.000 283.361,2.447 284.039,27.198 282.903 C 37.806 282.416,47.275 282.021,48.242 282.025 L 50.000 282.031 50.000 332.422 L 50.000 382.813 44.883 382.813 C 34.093 382.813,29.096 390.923,35.664 397.778 L 37.792 400.000 91.613 400.000 L 145.433 400.000 147.716 397.716 C 153.949 391.484,149.433 383.442,139.416 382.936 L 133.594 382.642 133.594 330.383 L 133.594 278.125 135.806 278.125 C 139.332 278.125,298.721 271.202,308.008 270.645 L 316.406 270.142 316.406 301.477 L 316.406 332.813 311.770 332.813 C 300.992 332.813,295.698 341.130,302.284 347.716 L 304.567 350.000 350.000 350.000 L 395.433 350.000 397.716 347.716 C 403.949 341.484,399.433 333.442,389.416 332.936 L 383.594 332.642 383.594 300.000 L 383.594 267.358 389.534 267.058 C 404.424 266.306,404.403 250.000,389.513 250.000 L 383.594 250.000 383.594 178.086 C 383.594 94.737,384.173 100.000,375.000 100.000 C 368.752 100.000,366.406 103.082,366.406 111.289 L 366.406 116.406 350.000 116.406 L 333.594 116.406 333.594 111.289 C 333.594 103.082,331.248 100.000,325.000 100.000 C 317.398 100.000,316.406 102.274,316.406 119.704 L 316.406 133.236 312.910 139.209 C 302.903 156.303,290.506 163.783,268.857 165.789 C 254.288 167.138,249.125 173.500,256.563 180.937 C 263.924 188.299,298.103 180.251,311.969 167.892 L 316.406 163.938 316.406 175.681 L 316.406 187.424 311.410 190.218 C 251.270 223.850,183.073 169.400,137.749 51.563 L 133.993 41.797 133.598 23.438 C 133.119 1.177,132.687 -0.000,125.000 0.000 C 117.419 0.000,116.406 2.297,116.406 19.492 L 116.406 32.813 91.846 32.813 L 67.286 32.813 67.042 18.799 L 66.797 4.786 64.502 2.393 C 61.237 -1.012,55.630 -1.063,52.284 2.284 M116.378 90.820 L 116.350 131.641 114.394 129.297 C 103.569 116.328,83.151 79.460,73.184 54.883 L 71.203 50.000 93.805 50.000 L 116.406 50.000 116.378 90.820 M82.865 113.806 C 91.972 128.987,102.852 143.913,111.733 153.407 L 116.406 158.402 116.406 210.060 L 116.406 261.719 112.305 261.785 C 110.049 261.822,98.974 262.261,87.695 262.762 L 67.186 263.672 67.203 174.219 L 67.220 84.766 72.974 95.837 C 76.139 101.927,80.589 110.013,82.865 113.806 M151.149 121.875 C 196.702 200.881,255.420 233.678,310.060 210.634 L 316.406 207.957 316.406 230.541 L 316.406 253.125 312.695 253.141 C 310.654 253.150,269.616 254.885,221.500 256.997 C 173.383 259.110,133.917 260.740,133.798 260.621 C 133.678 260.501,133.671 241.027,133.782 217.346 L 133.984 174.288 140.625 178.611 C 164.303 194.028,181.250 196.179,181.250 183.768 C 181.250 178.564,179.163 176.390,172.164 174.302 C 161.416 171.097,149.632 164.452,138.882 155.534 L 133.623 151.172 133.621 119.531 L 133.619 87.891 139.344 99.609 C 142.492 106.055,147.805 116.074,151.149 121.875 M363.969 135.352 C 360.291 142.308,347.229 159.519,339.216 167.969 L 333.659 173.828 333.627 153.711 L 333.594 133.594 349.246 133.594 L 364.899 133.594 363.969 135.352 M366.406 207.341 L 366.406 250.619 354.883 251.099 C 348.545 251.363,341.162 251.761,338.477 251.983 L 333.594 252.387 333.594 224.753 L 333.594 197.119 339.788 191.892 C 346.597 186.146,355.911 176.519,361.987 168.945 C 364.142 166.260,366.018 164.063,366.156 164.063 C 366.294 164.063,366.406 183.538,366.406 207.341 M366.406 283.984 L 366.406 300.000 350.000 300.000 L 333.594 300.000 333.594 284.766 L 333.594 269.531 337.305 269.439 C 340.527 269.359,358.022 268.491,364.258 268.103 L 366.406 267.969 366.406 283.984 M116.406 305.859 L 116.406 332.813 91.797 332.813 L 67.188 332.813 67.188 307.031 L 67.188 281.250 68.945 281.177 C 69.912 281.137,79.844 280.661,91.016 280.119 C 102.188 279.577,112.471 279.082,113.867 279.020 L 116.406 278.906 116.406 305.859 M366.406 325.000 L 366.406 332.813 350.000 332.813 L 333.594 332.813 333.594 325.000 L 333.594 317.188 350.000 317.188 L 366.406 317.188 366.406 325.000 M116.406 366.406 L 116.406 382.813 91.797 382.813 L 67.188 382.813 67.188 366.406 L 67.188 350.000 91.797 350.000 L 116.406 350.000 116.406 366.406 " stroke="none" fill="url(#Gradient1)" fill-rule="evenodd"></path></g></svg>