<svg id="svg" version="1.1" xmlns="http://www.w3.org/2000/svg" xmlns:xlink="http://www.w3.org/1999/xlink" width="400" height="400" viewBox="0, 0, 400,400"><defs><linearGradient id="Gradient1" x1="0" x2="1" y1="1" y2="0"><stop offset="0%" stop-color="#f21368"/><stop offset="100%" stop-color="#4f0ff0"/></linearGradient></defs><g id="svgg"><path id="path0" d="M89.453 62.872 C 42.344 73.218,23.506 132.883,56.376 167.638 L 60.283 171.769 54.214 174.573 C 36.279 182.860,17.579 199.817,6.790 217.578 C -7.270 240.724,1.685 272.659,25.381 283.878 C 35.065 288.463,35.614 288.529,66.885 288.873 L 95.880 289.192 96.393 295.350 C 98.110 315.938,111.953 332.465,131.716 337.519 C 141.063 339.910,258.937 339.910,268.284 337.519 C 288.047 332.465,301.890 315.938,303.607 295.350 L 304.120 289.192 333.115 288.873 C 364.386 288.529,364.935 288.463,374.619 283.878 C 398.315 272.659,407.270 240.724,393.210 217.578 C 382.421 199.817,363.721 182.860,345.786 174.573 L 339.717 171.769 343.624 167.638 C 372.521 137.084,361.999 85.215,323.246 67.178 C 285.445 49.585,237.608 75.682,233.848 115.949 L 233.374 121.031 230.163 119.161 C 213.663 109.552,186.553 109.389,170.463 118.801 C 166.933 120.866,166.406 120.723,166.406 117.703 C 166.406 83.979,125.633 54.927,89.453 62.872 M112.778 87.955 C 129.457 92.250,141.406 107.566,141.406 124.649 C 141.406 163.185,90.529 177.559,70.782 144.602 C 53.349 115.507,80.028 79.522,112.778 87.955 M305.747 87.956 C 334.621 95.401,344.376 130.354,323.566 151.803 C 300.200 175.885,258.594 158.759,258.594 125.060 C 258.594 100.224,281.973 81.827,305.747 87.956 M208.023 137.867 C 228.747 142.258,242.180 163.651,237.053 184.096 C 229.797 213.026,194.093 222.965,173.042 201.914 C 146.394 175.266,171.094 130.041,208.023 137.867 M120.703 190.609 C 132.554 192.952,140.097 196.282,141.340 199.721 C 142.997 204.302,147.526 211.544,152.125 216.965 C 154.471 219.731,156.271 222.111,156.125 222.253 C 155.979 222.395,153.750 223.443,151.172 224.580 C 138.242 230.286,118.699 246.273,110.156 258.132 L 105.859 264.097 73.828 263.864 C 37.836 263.602,37.879 263.608,31.740 257.469 C 20.415 246.144,23.625 232.510,41.900 214.324 C 62.879 193.449,91.499 184.836,120.703 190.609 M312.731 190.354 C 349.472 197.410,382.922 231.441,372.738 251.403 C 366.818 263.006,364.660 263.584,326.172 263.864 L 294.141 264.097 289.844 258.132 C 281.301 246.273,261.758 230.286,248.828 224.580 C 246.250 223.443,244.021 222.395,243.875 222.253 C 243.729 222.111,245.529 219.731,247.875 216.965 C 252.474 211.544,257.003 204.302,258.660 199.721 C 261.588 191.622,291.948 186.363,312.731 190.354 M216.516 240.583 C 242.390 245.963,267.363 264.262,276.601 284.610 C 280.915 294.112,276.183 306.246,266.086 311.574 L 262.109 313.672 200.000 313.672 L 137.891 313.672 133.914 311.574 C 120.342 304.412,118.205 291.226,128.213 276.406 C 146.726 248.993,184.080 233.839,216.516 240.583 " stroke="none" fill="url(#Gradient1)" fill-rule="evenodd"></path></g></svg>