<svg xmlns="http://www.w3.org/2000/svg" xmlns:xlink="http://www.w3.org/1999/xlink" width="100" height="100" viewBox="0, 0, 400,400"><g id="svgg"><path id="path0" d="M23.047 13.984 C 21.328 14.782,18.797 16.620,17.422 18.069 C 12.297 23.470,12.498 20.878,12.517 81.420 C 12.541 157.359,6.494 150.008,68.920 149.983 C 116.249 149.964,114.666 150.136,120.078 144.431 C 125.200 139.032,125.000 141.599,125.000 81.250 C 125.000 5.179,131.021 12.534,68.750 12.534 C 28.917 12.534,25.970 12.628,23.047 13.984 M239.063 14.063 C 237.545 15.580,237.500 16.667,237.500 51.563 L 237.500 87.500 233.203 87.500 C 225.012 87.500,224.366 90.050,228.146 107.465 C 231.114 121.138,231.806 123.262,233.605 124.225 C 235.589 125.287,376.911 125.287,378.895 124.225 C 380.694 123.262,381.386 121.138,384.354 107.465 C 388.134 90.050,387.488 87.500,379.297 87.500 L 375.000 87.500 375.000 51.563 C 375.000 16.667,374.955 15.580,373.438 14.063 C 371.900 12.525,370.833 12.500,306.250 12.500 C 241.667 12.500,240.600 12.525,239.063 14.063 M108.122 26.088 C 112.521 27.925,112.500 27.666,112.500 81.392 C 112.500 135.709,112.565 134.945,107.780 136.613 C 104.219 137.854,33.281 137.854,29.720 136.613 C 24.935 134.945,25.000 135.709,25.000 81.392 C 25.000 28.034,25.007 27.949,29.207 26.121 C 32.830 24.544,104.355 24.514,108.122 26.088 M362.500 56.250 L 362.500 87.500 339.063 87.500 C 313.555 87.500,312.500 87.686,312.500 92.187 C 312.500 93.620,311.979 93.750,306.250 93.750 C 300.521 93.750,300.000 93.620,300.000 92.187 C 300.000 87.686,298.945 87.500,273.438 87.500 L 250.000 87.500 250.000 56.250 L 250.000 25.000 306.250 25.000 L 362.500 25.000 362.500 56.250 M137.500 81.250 L 137.500 87.500 165.625 87.500 L 193.750 87.500 193.750 103.125 L 193.750 118.750 200.000 118.750 L 206.250 118.750 206.250 98.438 C 206.250 71.807,211.147 75.000,170.313 75.000 L 137.500 75.000 137.500 81.250 M287.500 101.563 C 287.500 105.786,289.356 106.250,306.250 106.250 C 323.144 106.250,325.000 105.786,325.000 101.563 C 325.000 100.035,325.521 100.000,348.438 100.000 C 366.677 100.000,371.871 100.217,371.856 100.977 C 371.839 101.836,371.213 104.963,369.901 110.742 L 369.501 112.500 306.250 112.500 L 242.999 112.500 242.599 110.742 C 241.287 104.963,240.661 101.836,240.644 100.977 C 240.629 100.217,245.823 100.000,264.063 100.000 C 286.979 100.000,287.500 100.035,287.500 101.563 M62.500 118.750 L 62.500 125.000 68.750 125.000 L 75.000 125.000 75.000 118.750 L 75.000 112.500 68.750 112.500 L 62.500 112.500 62.500 118.750 M183.629 132.627 C 182.170 133.808,179.858 144.158,179.703 150.201 C 179.694 150.526,176.641 148.468,172.918 145.627 C 163.553 138.482,163.455 138.505,150.980 150.980 C 138.505 163.455,138.482 163.553,145.627 172.918 C 148.468 176.641,150.526 179.694,150.201 179.703 C 144.158 179.858,133.808 182.170,132.627 183.629 C 130.554 186.188,130.554 213.812,132.627 216.371 C 133.808 217.830,144.158 220.142,150.201 220.297 C 150.526 220.306,148.468 223.359,145.627 227.082 C 138.482 236.447,138.505 236.545,150.980 249.020 C 163.455 261.495,163.553 261.518,172.918 254.373 C 176.641 251.532,179.694 249.474,179.703 249.799 C 179.711 250.125,180.215 253.902,180.823 258.193 C 182.374 269.138,181.668 268.750,200.000 268.750 C 218.332 268.750,217.626 269.138,219.177 258.193 C 219.785 253.902,220.289 250.125,220.297 249.799 C 220.306 249.474,223.359 251.532,227.082 254.373 C 236.447 261.518,236.545 261.495,249.020 249.020 C 261.495 236.545,261.518 236.447,254.373 227.082 C 251.532 223.359,249.474 220.306,249.799 220.297 C 250.125 220.289,253.902 219.785,258.193 219.177 C 269.138 217.626,268.750 218.332,268.750 200.000 C 268.750 181.668,269.138 182.374,258.193 180.823 C 253.902 180.215,250.125 179.711,249.799 179.703 C 249.474 179.694,251.532 176.641,254.373 172.918 C 261.518 163.553,261.495 163.455,249.020 150.980 C 236.545 138.505,236.447 138.482,227.082 145.627 C 223.359 148.468,220.306 150.526,220.297 150.201 C 220.289 149.875,219.785 146.098,219.177 141.807 C 217.626 130.862,218.332 131.250,200.000 131.250 C 187.152 131.250,185.118 131.421,183.629 132.627 M300.000 162.500 L 300.000 187.500 290.625 187.500 L 281.250 187.500 281.250 193.750 L 281.250 200.000 295.313 200.000 C 314.541 200.000,312.500 203.896,312.500 167.188 L 312.500 137.500 306.250 137.500 L 300.000 137.500 300.000 162.500 M206.966 151.758 C 208.085 161.109,208.886 162.646,213.763 164.803 C 219.613 167.392,221.429 167.005,228.248 161.719 C 235.488 156.107,234.634 156.185,239.231 160.713 C 243.838 165.250,243.902 164.500,238.281 171.752 C 232.995 178.571,232.608 180.387,235.197 186.237 C 237.354 191.114,238.891 191.915,248.242 193.034 L 256.250 193.992 256.250 200.000 L 256.250 206.008 248.242 206.966 C 238.891 208.085,237.354 208.886,235.197 213.763 C 232.608 219.613,232.995 221.429,238.281 228.248 C 243.893 235.488,243.815 234.634,239.287 239.231 C 234.750 243.838,235.500 243.902,228.248 238.281 C 221.429 232.995,219.613 232.608,213.763 235.197 C 208.886 237.354,208.085 238.891,206.966 248.242 L 206.008 256.250 200.000 256.250 L 193.992 256.250 193.034 248.242 C 191.915 238.891,191.114 237.354,186.237 235.197 C 180.387 232.608,178.571 232.995,171.752 238.281 C 164.512 243.893,165.366 243.815,160.769 239.287 C 156.162 234.750,156.098 235.500,161.719 228.248 C 167.005 221.429,167.392 219.613,164.803 213.763 C 162.646 208.886,161.109 208.085,151.758 206.966 L 143.750 206.008 143.750 200.000 L 143.750 193.992 151.758 193.034 C 161.109 191.915,162.646 191.114,164.803 186.237 C 167.392 180.387,167.005 178.571,161.719 171.752 C 156.107 164.512,156.185 165.366,160.713 160.769 C 165.250 156.162,164.500 156.098,171.752 161.719 C 178.571 167.005,180.387 167.392,186.237 164.803 C 191.114 162.646,191.915 161.109,193.034 151.758 L 193.992 143.750 200.000 143.750 L 206.008 143.750 206.966 151.758 M190.042 169.849 C 163.567 178.457,161.178 216.231,186.328 228.561 C 197.453 234.016,213.372 231.251,222.311 222.311 C 245.330 199.292,221.023 159.775,190.042 169.849 M206.861 183.243 C 224.885 190.760,219.509 217.969,200.000 217.969 C 184.208 217.969,176.084 199.057,186.954 187.600 C 191.917 182.369,200.343 180.524,206.861 183.243 M70.313 195.313 C 68.811 196.814,68.750 197.917,68.750 223.438 L 68.750 250.000 75.000 250.000 L 81.250 250.000 81.250 228.125 L 81.250 206.250 100.000 206.250 L 118.750 206.250 118.750 200.000 L 118.750 193.750 95.313 193.750 C 72.917 193.750,71.806 193.819,70.313 195.313 M310.547 251.484 C 308.828 252.282,306.297 254.120,304.922 255.569 C 299.797 260.970,299.998 258.378,300.017 318.920 C 300.040 393.551,296.172 387.510,343.920 387.483 C 377.272 387.464,377.338 387.454,382.578 381.931 C 387.700 376.532,387.500 379.099,387.500 318.750 C 387.500 244.013,391.334 250.034,343.750 250.034 C 316.094 250.034,313.420 250.151,310.547 251.484 M23.047 263.984 C 19.185 265.776,15.313 269.767,13.711 273.608 C 11.707 278.412,11.948 347.565,13.984 351.953 C 18.036 360.686,22.595 362.500,40.491 362.500 L 54.471 362.500 52.215 371.680 C 48.132 388.303,46.658 387.500,81.250 387.500 C 115.842 387.500,114.368 388.303,110.285 371.680 L 108.029 362.500 122.179 362.483 C 140.181 362.461,145.012 360.447,148.789 351.392 C 150.602 347.045,150.602 277.955,148.789 273.608 C 147.187 269.767,143.315 265.776,139.453 263.984 C 134.615 261.740,27.885 261.740,23.047 263.984 M355.469 263.333 C 355.469 266.890,351.446 268.750,343.750 268.750 C 337.730 268.750,333.893 267.645,332.796 265.594 C 331.218 262.647,331.737 262.500,343.750 262.500 C 351.524 262.500,355.469 262.780,355.469 263.333 M318.750 265.259 C 318.750 275.724,327.274 281.208,343.580 281.233 C 360.068 281.258,368.649 275.867,368.733 265.430 C 368.762 261.837,372.710 263.195,374.137 267.288 C 375.537 271.304,375.329 367.233,373.912 370.622 C 372.186 374.753,370.485 375.000,343.750 375.000 C 317.015 375.000,315.314 374.753,313.588 370.622 C 312.212 367.330,311.959 271.091,313.316 267.434 C 314.837 263.338,318.750 261.773,318.750 265.259 M133.122 276.088 C 137.197 277.790,137.500 279.696,137.500 303.632 L 137.500 325.000 81.250 325.000 L 25.000 325.000 25.000 303.632 C 25.000 279.943,25.326 277.809,29.207 276.121 C 32.850 274.535,129.332 274.504,133.122 276.088 M193.750 307.813 C 193.750 333.333,193.811 334.436,195.313 335.938 C 196.839 337.464,197.917 337.500,242.188 337.500 L 287.500 337.500 287.500 331.250 L 287.500 325.000 246.875 325.000 L 206.250 325.000 206.250 303.125 L 206.250 281.250 200.000 281.250 L 193.750 281.250 193.750 307.813 M137.500 340.118 C 137.500 350.389,139.710 350.000,81.392 350.000 C 23.170 350.000,25.000 350.316,25.000 340.259 L 25.000 337.500 81.250 337.500 L 137.500 337.500 137.500 340.118 M95.570 368.164 C 96.299 371.279,96.891 374.092,96.885 374.414 C 96.880 374.736,89.844 375.000,81.250 375.000 C 72.656 375.000,65.620 374.736,65.615 374.414 C 65.609 374.092,66.201 371.279,66.930 368.164 L 68.254 362.500 81.250 362.500 L 94.246 362.500 95.570 368.164 " stroke="none" fill="#f21368" fill-rule="evenodd"></path></g></svg>