<svg id="svg" version="1.1" xmlns="http://www.w3.org/2000/svg" xmlns:xlink="http://www.w3.org/1999/xlink" width="100" height="100" viewBox="0, 0, 400,400"><defs><linearGradient id="Gradient1" x1="0" x2="1" y1="1" y2="0"><stop offset="0%" stop-color="#f21368"/><stop offset="100%" stop-color="#4f0ff0"/></linearGradient></defs><g id="svgg"><path id="path0" d="M177.152 14.061 C 148.362 18.911,110.989 38.211,110.312 48.576 C 109.857 55.544,115.903 57.551,122.401 52.590 C 206.174 -11.366,323.828 45.532,323.828 150.000 C 323.828 260.772,190.438 316.130,112.154 237.846 C 67.370 193.062,63.365 123.780,102.590 72.401 C 109.687 63.105,100.191 54.649,92.567 63.477 C 79.719 78.352,68.427 103.123,64.748 124.498 C 63.850 129.716,62.970 134.775,62.793 135.742 C 62.481 137.440,62.173 137.501,53.696 137.517 C 43.740 137.537,40.424 138.587,36.172 143.069 C 30.937 148.586,31.250 142.541,31.250 238.256 L 31.250 325.000 23.437 325.000 C 11.758 325.000,12.340 323.828,12.645 346.730 L 12.891 365.234 15.189 369.922 C 18.122 375.904,24.096 381.878,30.078 384.811 L 34.766 387.109 134.559 387.316 C 247.560 387.551,237.500 388.129,237.500 381.399 C 237.500 374.783,247.756 375.441,137.758 375.000 C 29.157 374.565,37.371 375.005,31.347 369.296 C 26.644 364.840,25.546 361.175,25.152 348.633 L 24.803 337.500 87.402 337.500 L 150.000 337.500 150.000 345.313 C 150.000 357.462,144.459 356.250,200.000 356.250 C 255.541 356.250,250.000 357.462,250.000 345.312 L 250.000 337.500 312.598 337.500 L 375.197 337.500 374.848 348.633 C 374.454 361.175,373.356 364.840,368.653 369.296 C 362.818 374.826,365.674 374.566,305.991 375.000 C 245.423 375.440,250.000 374.917,250.000 381.399 C 250.000 387.996,245.724 387.568,309.200 387.325 L 365.234 387.109 369.922 384.814 C 375.900 381.886,381.876 375.908,384.811 369.922 L 387.109 365.234 387.355 346.730 C 387.592 328.904,387.542 328.167,385.988 326.613 C 384.381 325.006,384.086 325.000,312.500 325.000 C 228.106 325.000,237.500 323.630,237.500 335.938 L 237.500 343.750 200.000 343.750 L 162.500 343.750 162.500 335.938 C 162.500 323.703,169.725 325.000,101.563 325.000 L 43.750 325.000 43.750 241.132 C 43.750 180.571,43.996 156.557,44.637 154.720 C 45.815 151.342,49.187 150.000,56.502 150.000 L 62.273 150.000 62.704 159.570 C 63.723 182.190,71.607 205.580,85.116 226.063 C 88.194 230.730,90.605 234.645,90.474 234.763 C 90.342 234.882,85.622 237.284,79.984 240.101 C 68.281 245.948,68.750 245.309,68.750 255.407 C 68.750 262.675,68.663 263.070,66.893 263.877 C 48.612 272.206,54.850 300.000,75.000 300.000 C 95.150 300.000,101.388 272.206,83.107 263.877 C 81.472 263.132,81.250 262.504,81.250 258.638 L 81.250 254.245 90.573 249.635 L 99.896 245.025 105.356 250.176 C 108.359 253.008,112.777 256.807,115.173 258.616 L 119.531 261.906 119.531 268.780 L 119.531 275.654 116.992 277.225 C 100.225 287.603,106.977 312.466,126.563 312.466 C 145.779 312.466,152.765 288.158,136.545 277.734 C 133.522 275.792,132.890 274.976,132.855 272.971 L 132.813 270.551 140.430 274.265 C 154.393 281.075,172.618 286.086,187.695 287.260 L 193.750 287.732 193.750 291.006 C 193.750 293.695,193.418 294.432,191.893 295.127 C 173.590 303.466,179.824 331.216,200.000 331.216 C 220.176 331.216,226.410 303.466,208.107 295.127 C 206.582 294.432,206.250 293.695,206.250 291.006 L 206.250 287.732 212.305 287.260 C 227.718 286.060,245.777 281.041,260.352 273.908 L 268.750 269.798 268.750 272.664 C 268.750 274.924,268.357 275.710,266.893 276.377 C 248.590 284.716,254.824 312.466,275.000 312.466 C 295.176 312.466,301.410 284.716,283.107 276.377 C 281.347 275.575,281.251 275.159,281.274 268.429 L 281.298 261.328 284.894 258.618 C 286.872 257.127,291.109 253.462,294.309 250.473 L 300.129 245.038 309.440 249.641 L 318.750 254.245 318.750 258.638 C 318.750 262.504,318.528 263.132,316.893 263.877 C 298.507 272.254,304.880 300.054,325.170 299.983 C 345.203 299.913,351.302 272.167,333.107 263.877 C 331.337 263.070,331.250 262.675,331.250 255.407 C 331.250 245.309,331.719 245.948,320.016 240.101 C 314.378 237.284,309.642 234.866,309.491 234.728 C 309.341 234.590,311.735 230.713,314.812 226.112 C 328.284 205.964,336.271 182.327,337.296 159.570 L 337.727 150.000 343.498 150.000 C 350.813 150.000,354.185 151.342,355.363 154.720 C 356.001 156.551,356.250 178.588,356.250 233.320 C 356.250 319.540,355.694 312.500,362.500 312.500 C 369.315 312.500,368.750 319.923,368.750 230.444 C 368.750 143.365,369.043 148.566,363.828 143.069 C 359.576 138.587,356.260 137.537,346.304 137.517 C 337.827 137.501,337.519 137.440,337.207 135.742 C 337.030 134.775,336.144 129.682,335.238 124.422 C 322.739 51.830,250.848 1.643,177.152 14.061 M181.250 38.608 C 112.755 50.720,71.089 120.482,93.097 186.200 C 116.696 256.665,201.343 284.837,263.847 243.028 C 271.900 237.642,273.705 234.822,271.733 230.709 C 269.174 225.372,265.035 225.593,256.790 231.508 C 203.466 269.766,125.614 243.615,105.448 180.671 C 80.716 103.474,153.576 30.759,230.859 55.510 C 293.584 75.598,319.690 153.573,281.508 206.790 C 275.593 215.035,275.372 219.174,280.709 221.733 C 284.896 223.740,287.645 221.923,293.322 213.395 C 337.896 146.439,301.904 56.843,223.438 39.431 C 215.515 37.673,189.417 37.164,181.250 38.608 M177.732 81.726 C 156.077 96.114,156.250 95.966,156.250 100.149 C 156.250 109.791,161.524 108.729,182.221 94.922 C 191.561 88.691,199.561 83.594,200.000 83.594 C 200.439 83.594,208.439 88.691,217.779 94.922 C 236.163 107.186,238.681 108.194,242.188 104.688 C 243.983 102.892,244.318 97.892,242.773 95.937 C 240.071 92.517,202.679 68.750,200.000 68.750 C 197.762 68.750,193.685 71.126,177.732 81.726 M139.063 120.313 C 137.558 121.817,137.500 122.917,137.500 150.000 C 137.500 181.992,137.352 181.250,143.750 181.250 C 149.531 181.250,149.994 180.088,150.041 165.430 L 150.083 152.734 156.749 166.016 C 164.078 180.617,164.583 181.250,168.899 181.250 C 175.124 181.250,175.000 181.884,175.000 150.000 C 175.000 118.008,175.148 118.750,168.750 118.750 C 162.969 118.750,162.506 119.912,162.459 134.570 L 162.417 147.266 155.751 133.984 C 152.085 126.680,148.521 120.264,147.831 119.727 C 145.848 118.183,140.858 118.517,139.063 120.313 M189.063 120.313 C 187.558 121.817,187.500 122.917,187.500 150.000 C 187.500 181.992,187.352 181.250,193.750 181.250 C 199.397 181.250,200.000 179.893,200.000 167.188 L 200.000 156.250 207.813 156.250 C 217.062 156.250,218.750 155.285,218.750 150.000 C 218.750 144.715,217.062 143.750,207.813 143.750 L 200.000 143.750 200.000 137.500 L 200.000 131.250 210.938 131.250 C 223.643 131.250,225.000 130.647,225.000 125.000 C 225.000 119.022,224.184 118.750,206.250 118.750 C 191.667 118.750,190.521 118.854,189.063 120.313 M239.063 120.313 C 234.440 124.935,238.049 131.250,245.313 131.250 L 250.000 131.250 250.000 154.688 C 250.000 181.397,249.966 181.250,256.250 181.250 C 262.534 181.250,262.500 181.397,262.500 154.688 L 262.500 131.250 267.188 131.250 C 273.028 131.250,275.000 129.672,275.000 125.000 C 275.000 119.022,274.184 118.750,256.250 118.750 C 241.667 118.750,240.521 118.854,239.063 120.313 M114.063 145.313 C 113.021 146.354,112.500 147.917,112.500 150.000 C 112.500 152.083,113.021 153.646,114.063 154.688 C 115.104 155.729,116.667 156.250,118.750 156.250 C 120.833 156.250,122.396 155.729,123.438 154.688 C 124.479 153.646,125.000 152.083,125.000 150.000 C 125.000 147.917,124.479 146.354,123.438 145.313 C 122.396 144.271,120.833 143.750,118.750 143.750 C 116.667 143.750,115.104 144.271,114.063 145.313 M276.563 145.313 C 272.548 149.327,275.516 156.250,281.250 156.250 C 285.417 156.250,287.500 154.167,287.500 150.000 C 287.500 147.917,286.979 146.354,285.938 145.313 C 284.896 144.271,283.333 143.750,281.250 143.750 C 279.167 143.750,277.604 144.271,276.563 145.313 M157.813 195.313 C 156.017 197.108,155.682 202.108,157.227 204.063 C 159.929 207.483,197.321 231.250,200.000 231.250 C 202.679 231.250,240.071 207.483,242.773 204.063 C 244.318 202.108,243.983 197.108,242.188 195.313 C 238.681 191.806,236.163 192.814,217.779 205.078 C 208.439 211.309,200.439 216.406,200.000 216.406 C 199.561 216.406,191.561 211.309,182.221 205.078 C 163.837 192.814,161.319 191.806,157.813 195.313 M78.906 277.344 C 79.774 278.212,80.469 279.948,80.469 281.250 C 80.469 282.552,79.774 284.288,78.906 285.156 C 75.525 288.538,69.531 286.040,69.531 281.250 C 69.531 278.243,71.993 275.781,75.000 275.781 C 76.302 275.781,78.038 276.476,78.906 277.344 M328.906 277.344 C 329.774 278.212,330.469 279.948,330.469 281.250 C 330.469 282.552,329.774 284.288,328.906 285.156 C 328.038 286.024,326.302 286.719,325.000 286.719 C 323.698 286.719,321.962 286.024,321.094 285.156 C 320.226 284.288,319.531 282.552,319.531 281.250 C 319.531 279.948,320.226 278.212,321.094 277.344 C 321.962 276.476,323.698 275.781,325.000 275.781 C 326.302 275.781,328.038 276.476,328.906 277.344 M130.469 289.844 C 131.337 290.712,132.031 292.448,132.031 293.750 C 132.031 295.052,131.337 296.788,130.469 297.656 C 129.601 298.524,127.865 299.219,126.563 299.219 C 125.260 299.219,123.524 298.524,122.656 297.656 C 121.788 296.788,121.094 295.052,121.094 293.750 C 121.094 292.448,121.788 290.712,122.656 289.844 C 123.524 288.976,125.260 288.281,126.563 288.281 C 127.865 288.281,129.601 288.976,130.469 289.844 M278.906 289.844 C 279.774 290.712,280.469 292.448,280.469 293.750 C 280.469 295.052,279.774 296.788,278.906 297.656 C 278.038 298.524,276.302 299.219,275.000 299.219 C 273.698 299.219,271.962 298.524,271.094 297.656 C 270.226 296.788,269.531 295.052,269.531 293.750 C 269.531 292.448,270.226 290.712,271.094 289.844 C 271.962 288.976,273.698 288.281,275.000 288.281 C 276.302 288.281,278.038 288.976,278.906 289.844 M203.906 308.594 C 204.774 309.462,205.469 311.198,205.469 312.500 C 205.469 313.802,204.774 315.538,203.906 316.406 C 203.038 317.274,201.302 317.969,200.000 317.969 C 198.698 317.969,196.962 317.274,196.094 316.406 C 195.226 315.538,194.531 313.802,194.531 312.500 C 194.531 311.198,195.226 309.462,196.094 308.594 C 196.962 307.726,198.698 307.031,200.000 307.031 C 201.302 307.031,203.038 307.726,203.906 308.594 M45.313 351.563 C 41.298 355.577,44.266 362.500,50.000 362.500 C 54.167 362.500,56.250 360.417,56.250 356.250 C 56.250 352.083,54.167 350.000,50.000 350.000 C 47.917 350.000,46.354 350.521,45.313 351.563 M70.313 351.563 C 66.298 355.577,69.266 362.500,75.000 362.500 C 79.167 362.500,81.250 360.417,81.250 356.250 C 81.250 352.083,79.167 350.000,75.000 350.000 C 72.917 350.000,71.354 350.521,70.313 351.563 M320.313 351.563 C 319.271 352.604,318.750 354.167,318.750 356.250 C 318.750 358.333,319.271 359.896,320.313 360.938 C 321.354 361.979,322.917 362.500,325.000 362.500 C 327.083 362.500,328.646 361.979,329.688 360.938 C 330.729 359.896,331.250 358.333,331.250 356.250 C 331.250 354.167,330.729 352.604,329.688 351.563 C 328.646 350.521,327.083 350.000,325.000 350.000 C 322.917 350.000,321.354 350.521,320.313 351.563 M345.313 351.563 C 344.271 352.604,343.750 354.167,343.750 356.250 C 343.750 358.333,344.271 359.896,345.313 360.938 C 346.354 361.979,347.917 362.500,350.000 362.500 C 352.083 362.500,353.646 361.979,354.688 360.938 C 355.729 359.896,356.250 358.333,356.250 356.250 C 356.250 354.167,355.729 352.604,354.688 351.563 C 353.646 350.521,352.083 350.000,350.000 350.000 C 347.917 350.000,346.354 350.521,345.313 351.563 " stroke="none" fill="url(#Gradient1)" fill-rule="evenodd"></path></g></svg>