<svg xmlns="http://www.w3.org/2000/svg" xmlns:xlink="http://www.w3.org/1999/xlink" width="100" height="100" viewBox="0, 0, 400,400"><defs><linearGradient id="Gradient1" x1="0" x2="1" y1="1" y2="0"><stop offset="0%" stop-color="#28e9ff"/><stop offset="100%" stop-color="#4f0ff0"/></linearGradient></defs><g id="svgg"><path id="path0" d="M146.652 20.856 C 145.495 21.157,86.339 91.023,80.522 98.959 C 76.047 105.064,76.097 105.114,115.524 134.279 C 144.551 155.750,146.471 157.031,149.623 157.031 C 153.822 157.031,152.500 158.559,176.518 125.937 C 187.021 111.672,195.810 100.011,196.050 100.024 C 196.510 100.050,214.305 131.716,214.663 133.146 C 214.778 133.607,211.790 135.566,208.022 137.500 C 200.112 141.560,198.538 143.617,199.987 148.007 C 201.283 151.933,200.050 151.520,238.281 160.853 C 274.768 169.761,278.917 170.457,281.670 168.138 C 285.232 165.137,321.875 105.112,321.875 102.278 C 321.875 95.585,317.421 94.058,308.226 97.598 C 304.813 98.913,301.783 99.727,301.493 99.408 C 301.204 99.089,293.365 81.953,284.072 61.328 C 272.919 36.572,266.501 23.231,265.186 22.070 L 263.194 20.313 205.620 20.403 C 173.955 20.453,147.419 20.657,146.652 20.856 M175.186 60.225 L 189.043 86.061 169.013 112.366 C 157.996 126.834,148.723 138.967,148.406 139.327 C 147.956 139.839,102.231 106.774,97.805 102.737 C 96.727 101.754,98.059 100.088,137.295 53.320 L 153.189 34.375 157.258 34.382 L 161.328 34.389 175.186 60.225 M273.498 73.147 C 290.747 111.472,292.842 115.625,294.932 115.625 C 297.476 115.625,296.283 118.110,285.075 136.154 L 273.237 155.210 259.470 151.859 C 251.898 150.016,241.610 147.543,236.608 146.364 L 227.512 144.219 229.772 142.109 C 234.085 138.080,233.716 137.085,216.513 106.292 C 204.271 84.381,186.451 51.735,178.217 36.133 L 177.289 34.375 216.669 34.375 L 256.049 34.375 273.498 73.147 M313.281 176.594 C 294.160 187.270,277.687 196.968,276.674 198.144 C 273.598 201.715,274.471 203.841,292.034 235.539 C 301.078 251.864,308.312 265.386,308.108 265.590 C 307.904 265.794,299.141 266.687,288.634 267.574 L 269.531 269.186 269.513 263.695 C 269.471 251.352,264.653 245.766,258.042 250.396 C 256.454 251.508,213.184 306.251,211.160 309.707 C 208.922 313.532,209.644 314.894,230.158 345.525 C 250.242 375.513,253.428 379.688,256.226 379.688 C 261.690 379.687,264.063 375.914,264.063 367.226 L 264.063 360.938 306.988 360.938 L 349.913 360.938 351.836 359.180 C 354.484 356.759,399.997 255.652,400.007 252.168 C 400.016 248.932,357.772 161.381,354.951 158.789 C 351.365 155.494,350.102 156.034,313.281 176.594 M70.313 160.106 C 35.390 161.427,33.752 161.628,32.049 164.810 C 29.866 168.890,31.757 172.550,38.393 177.084 L 43.720 180.724 42.252 183.135 C 2.103 249.111,0.000 252.723,0.000 255.720 C 0.000 258.405,3.090 263.298,27.635 299.489 C 42.834 321.899,57.913 344.310,61.144 349.290 C 64.374 354.271,67.991 359.113,69.182 360.049 L 71.346 361.751 122.720 361.540 L 174.094 361.328 176.109 359.434 L 178.125 357.540 178.125 316.835 C 178.125 271.958,178.299 273.560,173.240 271.988 C 171.845 271.554,155.355 270.579,136.597 269.822 L 102.490 268.444 111.098 251.214 C 115.832 241.738,119.816 233.864,119.951 233.717 C 120.086 233.569,123.159 235.064,126.779 237.037 C 136.302 242.228,142.188 241.180,142.188 234.294 C 142.188 232.333,119.685 170.410,116.147 162.637 C 115.005 160.126,111.646 158.572,107.656 158.708 C 105.808 158.770,89.004 159.400,70.313 160.106 M107.052 177.148 C 111.062 187.776,121.875 217.325,121.875 217.659 C 121.875 217.859,121.195 217.660,120.364 217.215 C 114.586 214.123,113.118 215.954,99.515 243.230 C 85.944 270.439,59.978 320.273,59.375 320.263 C 58.937 320.257,17.151 258.467,16.169 256.373 C 15.699 255.372,21.277 245.770,38.264 218.337 C 59.726 183.677,60.975 181.456,60.762 178.320 C 60.553 175.252,60.684 174.995,62.494 174.933 C 65.486 174.829,102.553 172.901,104.045 172.771 C 104.965 172.690,105.863 173.999,107.052 177.148 M384.179 256.067 C 383.230 258.101,382.407 259.864,382.350 259.983 C 382.209 260.281,330.867 264.058,326.930 264.060 L 323.781 264.063 307.789 234.961 C 298.993 218.955,291.797 205.586,291.797 205.252 C 291.797 204.917,304.243 197.661,319.455 189.127 L 347.113 173.611 366.509 212.990 L 385.905 252.369 384.179 256.067 M363.557 303.320 C 356.490 318.896,349.098 335.244,347.129 339.648 L 343.549 347.656 299.474 347.656 L 255.398 347.656 253.538 349.516 L 251.677 351.376 239.038 332.385 L 226.398 313.393 241.129 294.499 C 252.972 279.309,255.904 275.967,256.087 277.451 C 256.977 284.660,257.926 284.791,288.560 281.955 C 302.801 280.636,327.988 278.573,344.531 277.370 C 361.074 276.167,375.013 275.141,375.507 275.091 C 376.000 275.041,370.623 287.744,363.557 303.320 M133.008 284.110 L 164.063 285.449 164.063 316.553 L 164.063 347.656 120.508 347.655 L 76.953 347.654 72.795 341.024 L 68.636 334.394 82.156 308.603 L 95.675 282.813 98.814 282.792 C 100.541 282.781,115.928 283.374,133.008 284.110 " stroke="none" fill="url(#Gradient1)" fill-rule="evenodd"></path></g></svg>