<svg id="svg" version="1.1" xmlns="http://www.w3.org/2000/svg" xmlns:xlink="http://www.w3.org/1999/xlink" width="400" height="400" viewBox="0, 0, 400,400"><defs><linearGradient id="Gradient1" x1="0" x2="1" y1="1" y2="0"><stop offset="0%" stop-color="#28e9ff"/><stop offset="100%" stop-color="#4f0ff0"/></linearGradient></defs><g id="svgg"><path id="path0" d="M195.067 1.588 C 193.725 2.644,191.962 6.011,189.806 11.636 L 186.563 20.096 180.664 20.595 C 177.419 20.869,173.428 21.094,171.794 21.094 C 164.792 21.094,161.075 26.250,162.975 33.330 C 163.322 34.624,172.746 42.952,177.456 46.128 C 177.802 46.361,177.050 50.228,175.784 54.721 C 170.557 73.275,177.073 78.107,193.247 67.673 C 201.404 62.410,199.443 62.408,207.624 67.688 C 223.733 78.083,230.291 73.199,225.014 54.737 C 223.733 50.254,222.766 46.531,222.866 46.464 C 226.566 43.966,237.460 34.824,237.804 33.929 C 240.302 27.418,235.958 21.094,228.987 21.094 C 227.354 21.094,223.362 20.869,220.118 20.595 L 214.218 20.096 210.976 11.636 C 206.573 0.150,201.205 -3.241,195.067 1.588 M202.430 24.688 C 204.897 31.675,206.491 32.813,213.818 32.813 L 219.612 32.813 214.894 36.739 C 209.322 41.376,208.721 43.099,210.472 49.400 C 212.117 55.313,211.968 55.423,206.912 52.018 C 201.596 48.438,199.185 48.438,193.869 52.018 C 188.814 55.423,188.665 55.313,190.309 49.400 C 192.061 43.099,191.459 41.376,185.887 36.739 L 181.169 32.813 186.963 32.813 C 194.290 32.813,195.884 31.675,198.351 24.688 C 200.558 18.437,200.223 18.437,202.430 24.688 M65.074 68.818 C 61.804 69.784,60.917 71.167,57.393 80.788 L 54.445 88.835 44.996 89.339 C 34.316 89.909,32.292 90.783,30.707 95.512 C 29.019 100.549,30.363 102.938,38.550 109.448 L 45.849 115.252 43.630 123.056 C 38.398 141.451,44.861 146.549,60.592 136.435 L 68.324 131.464 75.758 136.435 C 90.747 146.459,97.842 141.430,93.030 124.192 C 91.707 119.453,90.625 115.468,90.625 115.336 C 90.625 115.204,93.610 112.731,97.258 109.839 C 105.006 103.699,106.250 102.142,106.250 98.580 C 106.250 91.907,103.155 90.031,91.006 89.337 L 82.078 88.827 80.004 83.281 C 78.863 80.230,77.304 76.270,76.538 74.480 C 74.404 69.491,70.060 67.345,65.074 68.818 M329.161 69.078 C 326.048 70.470,325.104 71.993,321.496 81.445 L 318.589 89.063 313.396 89.128 C 291.594 89.405,287.813 97.390,303.571 109.878 C 308.983 114.166,310.166 115.475,309.798 116.766 C 304.977 133.671,304.898 136.490,309.146 139.832 C 312.881 142.769,316.673 142.006,324.609 136.719 C 333.131 131.042,331.772 131.042,340.625 136.719 C 355.917 146.524,362.273 141.265,357.176 123.024 L 354.987 115.188 362.256 109.423 C 370.415 102.953,371.764 100.553,370.074 95.512 C 368.485 90.771,366.476 89.909,355.664 89.333 C 350.400 89.052,346.094 88.542,346.094 88.198 C 346.094 85.861,339.439 70.865,337.977 69.907 C 335.331 68.173,331.905 67.851,329.161 69.078 M189.170 87.559 C 106.991 96.796,71.869 197.700,130.444 256.275 C 182.371 308.203,271.135 287.144,294.519 217.349 C 317.366 149.156,260.830 79.503,189.170 87.559 M73.451 99.569 C 74.590 100.716,76.450 101.198,80.979 101.522 L 86.994 101.953 82.626 105.317 C 76.773 109.824,76.251 111.577,78.525 119.074 C 80.026 124.020,79.839 124.107,74.881 120.768 C 69.459 117.117,67.117 117.161,61.138 121.025 L 56.409 124.082 57.958 118.608 C 59.956 111.548,59.541 110.220,53.856 105.489 L 49.138 101.563 53.891 101.563 C 61.634 101.563,63.488 100.364,66.028 93.717 L 68.193 88.052 70.066 93.049 C 71.096 95.798,72.619 98.732,73.451 99.569 M334.797 93.831 C 337.289 100.352,339.182 101.563,346.890 101.563 L 351.644 101.563 346.925 105.489 C 341.233 110.226,340.824 111.545,342.838 118.662 L 344.403 124.190 339.822 121.079 C 333.955 117.095,331.439 117.038,325.901 120.768 C 320.942 124.107,320.755 124.020,322.256 119.074 C 324.530 111.577,324.008 109.824,318.155 105.317 L 313.787 101.953 319.742 101.526 C 326.976 101.008,328.168 100.104,330.617 93.274 C 332.776 87.254,332.257 87.185,334.797 93.831 M209.895 100.054 C 276.687 107.502,309.841 185.328,269.019 238.841 C 228.873 291.468,145.893 280.466,120.358 219.130 C 95.279 158.886,144.961 92.813,209.895 100.054 M193.750 108.284 C 164.879 111.589,142.658 126.910,130.411 151.953 C 121.881 169.394,121.511 180.469,129.456 180.469 C 133.319 180.469,134.915 178.419,136.750 171.094 C 153.624 103.759,249.073 104.799,264.468 172.487 C 265.884 178.713,267.436 180.469,271.522 180.469 C 284.520 180.469,272.813 147.053,253.486 128.991 C 237.761 114.294,213.799 105.988,193.750 108.284 M198.995 141.890 C 198.689 142.197,198.438 143.245,198.438 144.218 C 198.438 146.003,197.898 146.318,193.248 147.251 C 174.911 150.930,175.299 175.912,193.802 182.832 L 198.438 184.566 198.438 195.761 L 198.438 206.957 194.863 205.881 C 192.897 205.289,189.676 203.548,187.704 202.012 C 183.614 198.826,181.905 198.563,179.688 200.781 C 174.044 206.425,182.143 214.872,195.117 216.875 C 197.888 217.302,198.438 217.678,198.438 219.145 C 198.438 221.795,200.387 223.087,202.758 222.007 C 204.190 221.354,204.688 220.519,204.688 218.767 C 204.688 216.845,205.014 216.403,206.445 216.389 C 212.043 216.334,219.631 209.904,221.492 203.637 C 224.955 191.977,220.549 182.210,209.570 177.209 L 204.688 174.984 204.688 165.529 L 204.688 156.073 206.836 156.449 C 208.018 156.656,210.665 157.479,212.718 158.277 C 216.964 159.928,218.457 159.452,220.202 155.894 C 222.385 151.442,219.025 148.465,209.924 146.788 C 205.250 145.927,204.745 145.649,204.532 143.818 C 204.297 141.796,200.434 140.451,198.995 141.890 M198.438 164.429 C 198.438 173.365,198.443 173.357,193.839 170.407 C 187.804 166.540,190.611 156.658,197.852 156.281 C 198.174 156.264,198.438 159.930,198.438 164.429 M207.369 189.021 C 212.575 192.452,213.369 199.287,209.063 203.594 C 204.411 208.245,203.906 207.587,203.906 196.875 C 203.906 186.798,203.927 186.751,207.369 189.021 M126.809 192.193 C 122.521 193.921,122.543 199.936,126.882 212.075 C 151.602 281.238,249.197 281.189,273.925 212.002 C 278.731 198.557,278.222 192.890,272.102 191.708 C 269.162 191.140,264.844 194.691,264.844 197.676 C 264.844 200.815,260.108 213.618,257.011 218.853 C 230.878 263.028,168.359 262.116,142.723 217.188 C 140.440 213.188,135.938 200.239,135.938 197.676 C 135.938 193.768,130.704 190.624,126.809 192.193 M14.844 218.922 C 0.260 226.681,4.613 246.903,28.917 284.296 C 46.020 310.611,51.657 316.021,73.438 327.025 C 92.315 336.563,105.158 346.347,108.127 353.454 C 110.141 358.275,110.471 361.431,109.018 361.988 C 102.076 364.652,102.976 393.341,110.156 398.242 L 112.731 400.000 150.701 399.995 C 199.087 399.988,196.082 401.307,196.086 380.078 C 196.088 366.438,195.485 364.185,191.053 361.281 C 189.484 360.253,189.063 359.332,189.063 356.936 C 189.062 347.595,185.167 330.647,180.895 321.400 C 172.492 303.214,162.967 295.815,136.745 287.108 L 127.787 284.133 108.413 267.653 C 97.758 258.588,87.583 250.381,85.803 249.414 C 74.704 243.386,61.321 253.320,63.811 265.737 C 64.821 270.772,64.247 270.312,54.297 258.123 C 46.084 248.061,45.513 247.118,41.406 236.848 C 39.043 230.938,36.486 225.150,35.723 223.987 C 31.685 217.826,21.532 215.364,14.844 218.922 M373.191 217.982 C 367.060 219.822,365.331 222.194,359.402 236.894 C 355.285 247.103,354.666 248.120,346.484 258.133 C 336.532 270.313,335.961 270.770,336.970 265.737 C 339.460 253.320,326.077 243.386,314.978 249.414 C 313.198 250.381,303.023 258.589,292.367 267.653 C 273.289 283.882,272.891 284.168,266.379 286.318 C 238.916 295.383,229.099 302.602,220.682 319.922 C 215.744 330.081,211.719 346.705,211.719 356.936 C 211.719 359.332,211.297 360.253,209.728 361.281 C 205.296 364.185,204.693 366.438,204.696 380.078 C 204.699 401.307,201.694 399.988,250.080 399.995 L 288.050 400.000 290.705 398.227 C 297.816 393.476,298.730 369.073,292.062 361.975 C 285.904 355.421,300.355 340.937,326.408 327.553 C 349.765 315.554,354.436 311.110,371.836 284.339 C 386.632 261.575,394.445 243.913,394.505 233.096 C 394.565 222.146,384.083 214.713,373.191 217.982 M25.315 231.445 C 25.938 232.412,28.260 237.870,30.474 243.574 C 34.431 253.766,34.669 254.150,44.270 265.813 C 55.873 279.908,53.560 278.147,71.140 286.265 L 85.357 292.830 93.121 301.688 C 103.184 313.172,108.235 315.118,110.952 308.558 C 112.711 304.313,112.694 304.291,79.740 267.823 C 76.328 264.047,75.655 262.874,76.304 261.837 C 78.133 258.919,80.103 260.202,100.583 277.644 L 121.087 295.108 133.005 299.190 C 154.123 306.423,161.649 311.598,167.714 323.051 C 172.300 331.712,176.548 347.938,176.559 356.836 L 176.563 359.375 149.744 359.375 L 122.925 359.375 122.014 355.431 C 118.709 341.112,106.707 329.755,81.202 316.813 C 59.589 305.846,55.653 302.116,39.588 277.378 C 27.401 258.610,18.750 240.272,18.750 233.204 C 18.750 229.741,23.412 228.492,25.315 231.445 M380.520 230.496 C 385.219 233.011,376.899 253.193,361.191 277.381 C 345.129 302.116,341.192 305.846,319.579 316.813 C 294.074 329.755,282.072 341.112,278.767 355.431 L 277.857 359.375 251.038 359.375 L 224.219 359.375 224.222 356.836 C 224.233 347.938,228.481 331.712,233.067 323.051 C 239.101 311.657,246.042 306.873,267.533 299.296 L 280.078 294.872 300.264 277.710 C 320.252 260.715,322.737 259.088,324.481 261.851 C 325.153 262.918,324.313 264.245,319.878 269.121 C 289.710 302.288,288.105 304.395,289.829 308.558 C 292.548 315.123,297.634 313.165,307.701 301.677 L 315.473 292.807 330.682 285.803 L 345.890 278.799 356.073 266.387 C 366.104 254.161,366.317 253.819,370.315 243.589 C 375.923 229.237,376.584 228.390,380.520 230.496 M184.375 380.078 L 184.375 388.281 150.781 388.281 L 117.188 388.281 117.188 380.078 L 117.188 371.875 150.781 371.875 L 184.375 371.875 184.375 380.078 M283.594 380.078 L 283.594 388.281 250.391 388.281 L 217.188 388.281 217.188 380.078 L 217.188 371.875 250.391 371.875 L 283.594 371.875 283.594 380.078 " stroke="none" fill="url(#Gradient1)" fill-rule="evenodd"></path></g></svg>