<svg id="svg" version="1.1" xmlns="http://www.w3.org/2000/svg" xmlns:xlink="http://www.w3.org/1999/xlink" width="100" height="100" viewBox="0, 0, 400,400"><defs><linearGradient id="Gradient1" x1="0" x2="1" y1="1" y2="0"><stop offset="0%" stop-color="#28e9ff"/><stop offset="100%" stop-color="#4f0ff0"/></linearGradient></defs><g id="svgg"><path id="path0" d="M193.750 1.412 C 176.092 11.146,67.829 74.137,66.268 75.586 C 62.368 79.205,62.462 77.045,62.683 157.813 L 62.891 233.984 64.584 236.328 C 66.394 238.833,191.980 311.863,197.269 313.486 C 199.219 314.085,200.789 314.083,202.758 313.478 C 208.075 311.846,333.612 238.840,335.421 236.328 L 337.109 233.984 337.317 157.813 C 337.538 77.046,337.632 79.211,333.732 75.580 C 332.582 74.508,303.164 57.186,268.359 37.085 C 198.317 -3.366,200.514 -2.316,193.750 1.412 M299.753 84.849 C 299.244 85.325,291.270 90.047,282.031 95.343 C 272.793 100.639,264.685 105.303,264.013 105.707 C 263.024 106.304,186.173 63.009,163.884 49.299 L 161.752 47.988 180.907 36.975 L 200.062 25.963 250.369 54.974 C 287.921 76.628,300.443 84.204,299.753 84.849 M188.072 91.505 C 215.722 107.457,238.242 120.591,238.118 120.691 C 236.651 121.864,200.628 142.188,200.015 142.188 C 199.094 142.188,101.722 86.215,100.256 84.842 C 99.425 84.064,134.715 62.686,137.064 62.544 C 137.468 62.520,160.422 75.552,188.072 91.505 M140.625 136.586 L 187.891 163.882 188.091 222.242 C 188.205 255.371,187.996 280.489,187.608 280.340 C 187.231 280.196,164.383 267.070,136.833 251.172 L 86.742 222.266 86.730 163.834 L 86.719 105.403 90.039 107.346 C 91.865 108.415,114.629 121.573,140.625 136.586 M313.271 163.867 L 313.260 222.266 263.180 251.172 C 235.636 267.070,212.786 280.196,212.404 280.340 C 212.001 280.492,211.793 256.114,211.909 222.255 L 212.109 163.907 231.445 152.730 L 250.781 141.553 250.782 149.878 C 250.784 162.165,253.497 166.344,261.882 166.973 C 272.496 167.770,275.000 163.103,275.000 142.528 L 275.000 127.575 293.945 116.575 C 304.365 110.525,312.979 105.551,313.086 105.522 C 313.193 105.493,313.277 131.748,313.271 163.867 M350.302 314.032 C 335.268 316.346,322.405 326.513,316.679 340.606 L 314.925 344.922 300.236 345.118 L 285.547 345.314 283.642 340.902 C 271.835 313.555,229.929 313.258,217.017 340.430 L 214.696 345.313 200.000 345.313 L 185.304 345.313 182.983 340.430 C 170.074 313.264,128.198 313.552,116.358 340.888 L 114.453 345.286 99.780 345.299 C 86.487 345.311,85.066 345.184,84.669 343.945 C 70.040 298.269,2.510 306.866,0.210 354.697 C -2.218 405.165,69.431 418.245,84.674 370.117 C 85.067 368.878,86.485 368.751,99.780 368.763 L 114.453 368.777 116.370 373.201 C 128.085 400.247,170.372 400.657,182.918 373.847 L 185.304 368.750 200.000 368.750 L 214.696 368.750 217.082 373.847 C 229.628 400.657,271.915 400.247,283.630 373.201 L 285.547 368.777 300.220 368.763 C 313.515 368.751,314.933 368.878,315.326 370.117 C 328.247 410.912,388.059 409.579,398.822 368.256 C 406.672 338.117,380.906 309.322,350.302 314.032 M49.907 339.229 C 62.995 343.209,66.244 361.657,55.558 371.311 C 43.760 381.970,24.303 373.535,24.237 357.734 C 24.177 343.376,35.856 334.957,49.907 339.229 M365.428 339.997 C 374.748 344.342,378.669 356.789,373.615 365.985 C 367.586 376.953,353.528 379.519,344.442 371.311 C 327.862 356.332,345.145 330.542,365.428 339.997 M157.518 346.619 C 161.809 349.431,163.841 357.667,161.398 362.343 C 155.986 372.703,141.965 372.105,137.853 361.340 C 133.416 349.721,146.875 339.646,157.518 346.619 M257.477 346.449 C 264.208 350.859,264.751 361.496,258.513 366.745 C 247.794 375.764,232.621 363.408,239.017 350.869 C 242.301 344.434,251.163 342.311,257.477 346.449 " stroke="none" fill="url(#Gradient1)" fill-rule="evenodd"></path></g></svg>